<?xml version="1.0" encoding="utf-8" standalone="no"?>
<!DOCTYPE svg PUBLIC "-//W3C//DTD SVG 1.1//EN"
  "http://www.w3.org/Graphics/SVG/1.1/DTD/svg11.dtd">
<svg xmlns:xlink="http://www.w3.org/1999/xlink" width="360pt" height="360pt" viewBox="0 0 360 360" xmlns="http://www.w3.org/2000/svg" version="1.1">
 <metadata>
  <rdf:RDF xmlns:dc="http://purl.org/dc/elements/1.1/" xmlns:cc="http://creativecommons.org/ns#" xmlns:rdf="http://www.w3.org/1999/02/22-rdf-syntax-ns#">
   <cc:Work>
    <dc:type rdf:resource="http://purl.org/dc/dcmitype/StillImage"/>
    <dc:date>2023-04-13T20:56:36.349670</dc:date>
    <dc:format>image/svg+xml</dc:format>
    <dc:creator>
     <cc:Agent>
      <dc:title>Matplotlib v3.5.1, https://matplotlib.org/</dc:title>
     </cc:Agent>
    </dc:creator>
   </cc:Work>
  </rdf:RDF>
 </metadata>
 <defs>
  <style type="text/css">*{stroke-linejoin: round; stroke-linecap: butt}</style>
 </defs>
 <g id="figure_1">
  <g id="patch_1">
   <path d="M 0 360 
L 360 360 
L 360 0 
L 0 0 
L 0 360 
z
" style="fill: none"/>
  </g>
  <g id="axes_1">
   <g id="patch_2">
    <path d="M 57.3 318.2 
L 349.2 318.2 
L 349.2 10.8 
L 57.3 10.8 
z
" style="fill: #ffffff"/>
   </g>
   <g id="matplotlib.axis_1">
    <g id="xtick_1">
     <g id="line2d_1">
      <defs>
       <path id="m3fc9e66d02" d="M 0 0 
L 0 3.5 
" style="stroke: #000000; stroke-width: 0.8"/>
      </defs>
      <g>
       <use xlink:href="#m3fc9e66d02" x="81.625" y="318.2" style="stroke: #000000; stroke-width: 0.8"/>
      </g>
     </g>
     <g id="text_1">
      <!-- 0 -->
      <g transform="translate(78.44375 332.798437)scale(0.1 -0.1)">
       <defs>
        <path id="DejaVuSans-30" d="M 2034 4250 
Q 1547 4250 1301 3770 
Q 1056 3291 1056 2328 
Q 1056 1369 1301 889 
Q 1547 409 2034 409 
Q 2525 409 2770 889 
Q 3016 1369 3016 2328 
Q 3016 3291 2770 3770 
Q 2525 4250 2034 4250 
z
M 2034 4750 
Q 2819 4750 3233 4129 
Q 3647 3509 3647 2328 
Q 3647 1150 3233 529 
Q 2819 -91 2034 -91 
Q 1250 -91 836 529 
Q 422 1150 422 2328 
Q 422 3509 836 4129 
Q 1250 4750 2034 4750 
z
" transform="scale(0.015625)"/>
       </defs>
       <use xlink:href="#DejaVuSans-30"/>
      </g>
     </g>
    </g>
    <g id="xtick_2">
     <g id="line2d_2">
      <g>
       <use xlink:href="#m3fc9e66d02" x="130.275" y="318.2" style="stroke: #000000; stroke-width: 0.8"/>
      </g>
     </g>
     <g id="text_2">
      <!-- 1 -->
      <g transform="translate(127.09375 332.798437)scale(0.1 -0.1)">
       <defs>
        <path id="DejaVuSans-31" d="M 794 531 
L 1825 531 
L 1825 4091 
L 703 3866 
L 703 4441 
L 1819 4666 
L 2450 4666 
L 2450 531 
L 3481 531 
L 3481 0 
L 794 0 
L 794 531 
z
" transform="scale(0.015625)"/>
       </defs>
       <use xlink:href="#DejaVuSans-31"/>
      </g>
     </g>
    </g>
    <g id="xtick_3">
     <g id="line2d_3">
      <g>
       <use xlink:href="#m3fc9e66d02" x="178.925" y="318.2" style="stroke: #000000; stroke-width: 0.8"/>
      </g>
     </g>
     <g id="text_3">
      <!-- 2 -->
      <g transform="translate(175.74375 332.798437)scale(0.1 -0.1)">
       <defs>
        <path id="DejaVuSans-32" d="M 1228 531 
L 3431 531 
L 3431 0 
L 469 0 
L 469 531 
Q 828 903 1448 1529 
Q 2069 2156 2228 2338 
Q 2531 2678 2651 2914 
Q 2772 3150 2772 3378 
Q 2772 3750 2511 3984 
Q 2250 4219 1831 4219 
Q 1534 4219 1204 4116 
Q 875 4013 500 3803 
L 500 4441 
Q 881 4594 1212 4672 
Q 1544 4750 1819 4750 
Q 2544 4750 2975 4387 
Q 3406 4025 3406 3419 
Q 3406 3131 3298 2873 
Q 3191 2616 2906 2266 
Q 2828 2175 2409 1742 
Q 1991 1309 1228 531 
z
" transform="scale(0.015625)"/>
       </defs>
       <use xlink:href="#DejaVuSans-32"/>
      </g>
     </g>
    </g>
    <g id="xtick_4">
     <g id="line2d_4">
      <g>
       <use xlink:href="#m3fc9e66d02" x="227.575" y="318.2" style="stroke: #000000; stroke-width: 0.8"/>
      </g>
     </g>
     <g id="text_4">
      <!-- 3 -->
      <g transform="translate(224.39375 332.798437)scale(0.1 -0.1)">
       <defs>
        <path id="DejaVuSans-33" d="M 2597 2516 
Q 3050 2419 3304 2112 
Q 3559 1806 3559 1356 
Q 3559 666 3084 287 
Q 2609 -91 1734 -91 
Q 1441 -91 1130 -33 
Q 819 25 488 141 
L 488 750 
Q 750 597 1062 519 
Q 1375 441 1716 441 
Q 2309 441 2620 675 
Q 2931 909 2931 1356 
Q 2931 1769 2642 2001 
Q 2353 2234 1838 2234 
L 1294 2234 
L 1294 2753 
L 1863 2753 
Q 2328 2753 2575 2939 
Q 2822 3125 2822 3475 
Q 2822 3834 2567 4026 
Q 2313 4219 1838 4219 
Q 1578 4219 1281 4162 
Q 984 4106 628 3988 
L 628 4550 
Q 988 4650 1302 4700 
Q 1616 4750 1894 4750 
Q 2613 4750 3031 4423 
Q 3450 4097 3450 3541 
Q 3450 3153 3228 2886 
Q 3006 2619 2597 2516 
z
" transform="scale(0.015625)"/>
       </defs>
       <use xlink:href="#DejaVuSans-33"/>
      </g>
     </g>
    </g>
    <g id="xtick_5">
     <g id="line2d_5">
      <g>
       <use xlink:href="#m3fc9e66d02" x="276.225" y="318.2" style="stroke: #000000; stroke-width: 0.8"/>
      </g>
     </g>
     <g id="text_5">
      <!-- 4 -->
      <g transform="translate(273.04375 332.798437)scale(0.1 -0.1)">
       <defs>
        <path id="DejaVuSans-34" d="M 2419 4116 
L 825 1625 
L 2419 1625 
L 2419 4116 
z
M 2253 4666 
L 3047 4666 
L 3047 1625 
L 3713 1625 
L 3713 1100 
L 3047 1100 
L 3047 0 
L 2419 0 
L 2419 1100 
L 313 1100 
L 313 1709 
L 2253 4666 
z
" transform="scale(0.015625)"/>
       </defs>
       <use xlink:href="#DejaVuSans-34"/>
      </g>
     </g>
    </g>
    <g id="xtick_6">
     <g id="line2d_6">
      <g>
       <use xlink:href="#m3fc9e66d02" x="324.875" y="318.2" style="stroke: #000000; stroke-width: 0.8"/>
      </g>
     </g>
     <g id="text_6">
      <!-- 5 -->
      <g transform="translate(321.69375 332.798437)scale(0.1 -0.1)">
       <defs>
        <path id="DejaVuSans-35" d="M 691 4666 
L 3169 4666 
L 3169 4134 
L 1269 4134 
L 1269 2991 
Q 1406 3038 1543 3061 
Q 1681 3084 1819 3084 
Q 2600 3084 3056 2656 
Q 3513 2228 3513 1497 
Q 3513 744 3044 326 
Q 2575 -91 1722 -91 
Q 1428 -91 1123 -41 
Q 819 9 494 109 
L 494 744 
Q 775 591 1075 516 
Q 1375 441 1709 441 
Q 2250 441 2565 725 
Q 2881 1009 2881 1497 
Q 2881 1984 2565 2268 
Q 2250 2553 1709 2553 
Q 1456 2553 1204 2497 
Q 953 2441 691 2322 
L 691 4666 
z
" transform="scale(0.015625)"/>
       </defs>
       <use xlink:href="#DejaVuSans-35"/>
      </g>
     </g>
    </g>
    <g id="text_7">
     <!-- cluster -->
     <g transform="translate(186.246094 346.476562)scale(0.1 -0.1)">
      <defs>
       <path id="DejaVuSans-63" d="M 3122 3366 
L 3122 2828 
Q 2878 2963 2633 3030 
Q 2388 3097 2138 3097 
Q 1578 3097 1268 2742 
Q 959 2388 959 1747 
Q 959 1106 1268 751 
Q 1578 397 2138 397 
Q 2388 397 2633 464 
Q 2878 531 3122 666 
L 3122 134 
Q 2881 22 2623 -34 
Q 2366 -91 2075 -91 
Q 1284 -91 818 406 
Q 353 903 353 1747 
Q 353 2603 823 3093 
Q 1294 3584 2113 3584 
Q 2378 3584 2631 3529 
Q 2884 3475 3122 3366 
z
" transform="scale(0.015625)"/>
       <path id="DejaVuSans-6c" d="M 603 4863 
L 1178 4863 
L 1178 0 
L 603 0 
L 603 4863 
z
" transform="scale(0.015625)"/>
       <path id="DejaVuSans-75" d="M 544 1381 
L 544 3500 
L 1119 3500 
L 1119 1403 
Q 1119 906 1312 657 
Q 1506 409 1894 409 
Q 2359 409 2629 706 
Q 2900 1003 2900 1516 
L 2900 3500 
L 3475 3500 
L 3475 0 
L 2900 0 
L 2900 538 
Q 2691 219 2414 64 
Q 2138 -91 1772 -91 
Q 1169 -91 856 284 
Q 544 659 544 1381 
z
M 1991 3584 
L 1991 3584 
z
" transform="scale(0.015625)"/>
       <path id="DejaVuSans-73" d="M 2834 3397 
L 2834 2853 
Q 2591 2978 2328 3040 
Q 2066 3103 1784 3103 
Q 1356 3103 1142 2972 
Q 928 2841 928 2578 
Q 928 2378 1081 2264 
Q 1234 2150 1697 2047 
L 1894 2003 
Q 2506 1872 2764 1633 
Q 3022 1394 3022 966 
Q 3022 478 2636 193 
Q 2250 -91 1575 -91 
Q 1294 -91 989 -36 
Q 684 19 347 128 
L 347 722 
Q 666 556 975 473 
Q 1284 391 1588 391 
Q 1994 391 2212 530 
Q 2431 669 2431 922 
Q 2431 1156 2273 1281 
Q 2116 1406 1581 1522 
L 1381 1569 
Q 847 1681 609 1914 
Q 372 2147 372 2553 
Q 372 3047 722 3315 
Q 1072 3584 1716 3584 
Q 2034 3584 2315 3537 
Q 2597 3491 2834 3397 
z
" transform="scale(0.015625)"/>
       <path id="DejaVuSans-74" d="M 1172 4494 
L 1172 3500 
L 2356 3500 
L 2356 3053 
L 1172 3053 
L 1172 1153 
Q 1172 725 1289 603 
Q 1406 481 1766 481 
L 2356 481 
L 2356 0 
L 1766 0 
Q 1100 0 847 248 
Q 594 497 594 1153 
L 594 3053 
L 172 3053 
L 172 3500 
L 594 3500 
L 594 4494 
L 1172 4494 
z
" transform="scale(0.015625)"/>
       <path id="DejaVuSans-65" d="M 3597 1894 
L 3597 1613 
L 953 1613 
Q 991 1019 1311 708 
Q 1631 397 2203 397 
Q 2534 397 2845 478 
Q 3156 559 3463 722 
L 3463 178 
Q 3153 47 2828 -22 
Q 2503 -91 2169 -91 
Q 1331 -91 842 396 
Q 353 884 353 1716 
Q 353 2575 817 3079 
Q 1281 3584 2069 3584 
Q 2775 3584 3186 3129 
Q 3597 2675 3597 1894 
z
M 3022 2063 
Q 3016 2534 2758 2815 
Q 2500 3097 2075 3097 
Q 1594 3097 1305 2825 
Q 1016 2553 972 2059 
L 3022 2063 
z
" transform="scale(0.015625)"/>
       <path id="DejaVuSans-72" d="M 2631 2963 
Q 2534 3019 2420 3045 
Q 2306 3072 2169 3072 
Q 1681 3072 1420 2755 
Q 1159 2438 1159 1844 
L 1159 0 
L 581 0 
L 581 3500 
L 1159 3500 
L 1159 2956 
Q 1341 3275 1631 3429 
Q 1922 3584 2338 3584 
Q 2397 3584 2469 3576 
Q 2541 3569 2628 3553 
L 2631 2963 
z
" transform="scale(0.015625)"/>
      </defs>
      <use xlink:href="#DejaVuSans-63"/>
      <use xlink:href="#DejaVuSans-6c" x="54.980469"/>
      <use xlink:href="#DejaVuSans-75" x="82.763672"/>
      <use xlink:href="#DejaVuSans-73" x="146.142578"/>
      <use xlink:href="#DejaVuSans-74" x="198.242188"/>
      <use xlink:href="#DejaVuSans-65" x="237.451172"/>
      <use xlink:href="#DejaVuSans-72" x="298.974609"/>
     </g>
    </g>
   </g>
   <g id="matplotlib.axis_2">
    <g id="ytick_1">
     <g id="line2d_7">
      <defs>
       <path id="m976d2acf7a" d="M 0 0 
L -3.5 0 
" style="stroke: #000000; stroke-width: 0.8"/>
      </defs>
      <g>
       <use xlink:href="#m976d2acf7a" x="57.3" y="304.227273" style="stroke: #000000; stroke-width: 0.8"/>
      </g>
     </g>
     <g id="text_8">
      <!-- 0 -->
      <g transform="translate(43.9375 308.026491)scale(0.1 -0.1)">
       <use xlink:href="#DejaVuSans-30"/>
      </g>
     </g>
    </g>
    <g id="ytick_2">
     <g id="line2d_8">
      <g>
       <use xlink:href="#m976d2acf7a" x="57.3" y="261.221033" style="stroke: #000000; stroke-width: 0.8"/>
      </g>
     </g>
     <g id="text_9">
      <!-- 500 -->
      <g transform="translate(31.2125 265.020252)scale(0.1 -0.1)">
       <use xlink:href="#DejaVuSans-35"/>
       <use xlink:href="#DejaVuSans-30" x="63.623047"/>
       <use xlink:href="#DejaVuSans-30" x="127.246094"/>
      </g>
     </g>
    </g>
    <g id="ytick_3">
     <g id="line2d_9">
      <g>
       <use xlink:href="#m976d2acf7a" x="57.3" y="218.214793" style="stroke: #000000; stroke-width: 0.8"/>
      </g>
     </g>
     <g id="text_10">
      <!-- 1000 -->
      <g transform="translate(24.85 222.014012)scale(0.1 -0.1)">
       <use xlink:href="#DejaVuSans-31"/>
       <use xlink:href="#DejaVuSans-30" x="63.623047"/>
       <use xlink:href="#DejaVuSans-30" x="127.246094"/>
       <use xlink:href="#DejaVuSans-30" x="190.869141"/>
      </g>
     </g>
    </g>
    <g id="ytick_4">
     <g id="line2d_10">
      <g>
       <use xlink:href="#m976d2acf7a" x="57.3" y="175.208554" style="stroke: #000000; stroke-width: 0.8"/>
      </g>
     </g>
     <g id="text_11">
      <!-- 1500 -->
      <g transform="translate(24.85 179.007772)scale(0.1 -0.1)">
       <use xlink:href="#DejaVuSans-31"/>
       <use xlink:href="#DejaVuSans-35" x="63.623047"/>
       <use xlink:href="#DejaVuSans-30" x="127.246094"/>
       <use xlink:href="#DejaVuSans-30" x="190.869141"/>
      </g>
     </g>
    </g>
    <g id="ytick_5">
     <g id="line2d_11">
      <g>
       <use xlink:href="#m976d2acf7a" x="57.3" y="132.202314" style="stroke: #000000; stroke-width: 0.8"/>
      </g>
     </g>
     <g id="text_12">
      <!-- 2000 -->
      <g transform="translate(24.85 136.001533)scale(0.1 -0.1)">
       <use xlink:href="#DejaVuSans-32"/>
       <use xlink:href="#DejaVuSans-30" x="63.623047"/>
       <use xlink:href="#DejaVuSans-30" x="127.246094"/>
       <use xlink:href="#DejaVuSans-30" x="190.869141"/>
      </g>
     </g>
    </g>
    <g id="ytick_6">
     <g id="line2d_12">
      <g>
       <use xlink:href="#m976d2acf7a" x="57.3" y="89.196074" style="stroke: #000000; stroke-width: 0.8"/>
      </g>
     </g>
     <g id="text_13">
      <!-- 2500 -->
      <g transform="translate(24.85 92.995293)scale(0.1 -0.1)">
       <use xlink:href="#DejaVuSans-32"/>
       <use xlink:href="#DejaVuSans-35" x="63.623047"/>
       <use xlink:href="#DejaVuSans-30" x="127.246094"/>
       <use xlink:href="#DejaVuSans-30" x="190.869141"/>
      </g>
     </g>
    </g>
    <g id="ytick_7">
     <g id="line2d_13">
      <g>
       <use xlink:href="#m976d2acf7a" x="57.3" y="46.189835" style="stroke: #000000; stroke-width: 0.8"/>
      </g>
     </g>
     <g id="text_14">
      <!-- 3000 -->
      <g transform="translate(24.85 49.989053)scale(0.1 -0.1)">
       <use xlink:href="#DejaVuSans-33"/>
       <use xlink:href="#DejaVuSans-30" x="63.623047"/>
       <use xlink:href="#DejaVuSans-30" x="127.246094"/>
       <use xlink:href="#DejaVuSans-30" x="190.869141"/>
      </g>
     </g>
    </g>
    <g id="text_15">
     <!-- Production -->
     <g transform="translate(18.770312 191.099219)rotate(-90)scale(0.1 -0.1)">
      <defs>
       <path id="DejaVuSans-50" d="M 1259 4147 
L 1259 2394 
L 2053 2394 
Q 2494 2394 2734 2622 
Q 2975 2850 2975 3272 
Q 2975 3691 2734 3919 
Q 2494 4147 2053 4147 
L 1259 4147 
z
M 628 4666 
L 2053 4666 
Q 2838 4666 3239 4311 
Q 3641 3956 3641 3272 
Q 3641 2581 3239 2228 
Q 2838 1875 2053 1875 
L 1259 1875 
L 1259 0 
L 628 0 
L 628 4666 
z
" transform="scale(0.015625)"/>
       <path id="DejaVuSans-6f" d="M 1959 3097 
Q 1497 3097 1228 2736 
Q 959 2375 959 1747 
Q 959 1119 1226 758 
Q 1494 397 1959 397 
Q 2419 397 2687 759 
Q 2956 1122 2956 1747 
Q 2956 2369 2687 2733 
Q 2419 3097 1959 3097 
z
M 1959 3584 
Q 2709 3584 3137 3096 
Q 3566 2609 3566 1747 
Q 3566 888 3137 398 
Q 2709 -91 1959 -91 
Q 1206 -91 779 398 
Q 353 888 353 1747 
Q 353 2609 779 3096 
Q 1206 3584 1959 3584 
z
" transform="scale(0.015625)"/>
       <path id="DejaVuSans-64" d="M 2906 2969 
L 2906 4863 
L 3481 4863 
L 3481 0 
L 2906 0 
L 2906 525 
Q 2725 213 2448 61 
Q 2172 -91 1784 -91 
Q 1150 -91 751 415 
Q 353 922 353 1747 
Q 353 2572 751 3078 
Q 1150 3584 1784 3584 
Q 2172 3584 2448 3432 
Q 2725 3281 2906 2969 
z
M 947 1747 
Q 947 1113 1208 752 
Q 1469 391 1925 391 
Q 2381 391 2643 752 
Q 2906 1113 2906 1747 
Q 2906 2381 2643 2742 
Q 2381 3103 1925 3103 
Q 1469 3103 1208 2742 
Q 947 2381 947 1747 
z
" transform="scale(0.015625)"/>
       <path id="DejaVuSans-69" d="M 603 3500 
L 1178 3500 
L 1178 0 
L 603 0 
L 603 3500 
z
M 603 4863 
L 1178 4863 
L 1178 4134 
L 603 4134 
L 603 4863 
z
" transform="scale(0.015625)"/>
       <path id="DejaVuSans-6e" d="M 3513 2113 
L 3513 0 
L 2938 0 
L 2938 2094 
Q 2938 2591 2744 2837 
Q 2550 3084 2163 3084 
Q 1697 3084 1428 2787 
Q 1159 2491 1159 1978 
L 1159 0 
L 581 0 
L 581 3500 
L 1159 3500 
L 1159 2956 
Q 1366 3272 1645 3428 
Q 1925 3584 2291 3584 
Q 2894 3584 3203 3211 
Q 3513 2838 3513 2113 
z
" transform="scale(0.015625)"/>
      </defs>
      <use xlink:href="#DejaVuSans-50"/>
      <use xlink:href="#DejaVuSans-72" x="58.552734"/>
      <use xlink:href="#DejaVuSans-6f" x="97.416016"/>
      <use xlink:href="#DejaVuSans-64" x="158.597656"/>
      <use xlink:href="#DejaVuSans-75" x="222.074219"/>
      <use xlink:href="#DejaVuSans-63" x="285.453125"/>
      <use xlink:href="#DejaVuSans-74" x="340.433594"/>
      <use xlink:href="#DejaVuSans-69" x="379.642578"/>
      <use xlink:href="#DejaVuSans-6f" x="407.425781"/>
      <use xlink:href="#DejaVuSans-6e" x="468.607422"/>
     </g>
    </g>
   </g>
   <g id="line2d_14">
    <path d="M 57.3 304.227273 
L 349.2 304.227273 
" clip-path="url(#p1c073f89c1)" style="fill: none; stroke-dasharray: 1.85,0.8; stroke-dashoffset: 0; stroke: #000000; stroke-width: 0.5"/>
   </g>
   <g id="patch_3">
    <path d="M 57.3 318.2 
L 57.3 10.8 
" style="fill: none; stroke: #000000; stroke-width: 0.8; stroke-linejoin: miter; stroke-linecap: square"/>
   </g>
   <g id="patch_4">
    <path d="M 57.3 318.2 
L 349.2 318.2 
" style="fill: none; stroke: #000000; stroke-width: 0.8; stroke-linejoin: miter; stroke-linecap: square"/>
   </g>
   <g id="PathCollection_1">
    <defs>
     <path id="C0_0_55a925d3e7" d="M 0 4 
C 1.060812 4 2.078319 3.578535 2.828427 2.828427 
C 3.578535 2.078319 4 1.060812 4 -0 
C 4 -1.060812 3.578535 -2.078319 2.828427 -2.828427 
C 2.078319 -3.578535 1.060812 -4 0 -4 
C -1.060812 -4 -2.078319 -3.578535 -2.828427 -2.828427 
C -3.578535 -2.078319 -4 -1.060812 -4 0 
C -4 1.060812 -3.578535 2.078319 -2.828427 2.828427 
C -2.078319 3.578535 -1.060812 4 0 4 
z
"/>
    </defs>
    <g clip-path="url(#p1c073f89c1)">
     <use xlink:href="#C0_0_55a925d3e7" x="84.471343" y="301.818923" style="fill: #1f77b4"/>
    </g>
    <g clip-path="url(#p1c073f89c1)">
     <use xlink:href="#C0_0_55a925d3e7" x="84.455331" y="303.10911" style="fill: #1f77b4"/>
    </g>
    <g clip-path="url(#p1c073f89c1)">
     <use xlink:href="#C0_0_55a925d3e7" x="85.165923" y="280.573841" style="fill: #1f77b4"/>
    </g>
    <g clip-path="url(#p1c073f89c1)">
     <use xlink:href="#C0_0_55a925d3e7" x="79.805835" y="300.614749" style="fill: #1f77b4"/>
    </g>
    <g clip-path="url(#p1c073f89c1)">
     <use xlink:href="#C0_0_55a925d3e7" x="83.03214" y="304.227273" style="fill: #1f77b4"/>
    </g>
    <g clip-path="url(#p1c073f89c1)">
     <use xlink:href="#C0_0_55a925d3e7" x="80.604172" y="303.281135" style="fill: #1f77b4"/>
    </g>
    <g clip-path="url(#p1c073f89c1)">
     <use xlink:href="#C0_0_55a925d3e7" x="82.555654" y="291.497426" style="fill: #1f77b4"/>
    </g>
    <g clip-path="url(#p1c073f89c1)">
     <use xlink:href="#C0_0_55a925d3e7" x="86.413778" y="295.281975" style="fill: #1f77b4"/>
    </g>
    <g clip-path="url(#p1c073f89c1)">
     <use xlink:href="#C0_0_55a925d3e7" x="81.552301" y="303.711198" style="fill: #1f77b4"/>
    </g>
    <g clip-path="url(#p1c073f89c1)">
     <use xlink:href="#C0_0_55a925d3e7" x="79.516429" y="282.810165" style="fill: #1f77b4"/>
    </g>
    <g clip-path="url(#p1c073f89c1)">
     <use xlink:href="#C0_0_55a925d3e7" x="80.461675" y="302.937086" style="fill: #1f77b4"/>
    </g>
    <g clip-path="url(#p1c073f89c1)">
     <use xlink:href="#C0_0_55a925d3e7" x="79.997831" y="264.403495" style="fill: #1f77b4"/>
    </g>
    <g clip-path="url(#p1c073f89c1)">
     <use xlink:href="#C0_0_55a925d3e7" x="81.586146" y="302.507023" style="fill: #1f77b4"/>
    </g>
    <g clip-path="url(#p1c073f89c1)">
     <use xlink:href="#C0_0_55a925d3e7" x="84.908423" y="298.980511" style="fill: #1f77b4"/>
    </g>
    <g clip-path="url(#p1c073f89c1)">
     <use xlink:href="#C0_0_55a925d3e7" x="79.043308" y="303.79721" style="fill: #1f77b4"/>
    </g>
    <g clip-path="url(#p1c073f89c1)">
     <use xlink:href="#C0_0_55a925d3e7" x="84.07788" y="295.023937" style="fill: #1f77b4"/>
    </g>
    <g clip-path="url(#p1c073f89c1)">
     <use xlink:href="#C0_0_55a925d3e7" x="79.334863" y="300.270699" style="fill: #1f77b4"/>
    </g>
    <g clip-path="url(#p1c073f89c1)">
     <use xlink:href="#C0_0_55a925d3e7" x="78.511752" y="302.679048" style="fill: #1f77b4"/>
    </g>
    <g clip-path="url(#p1c073f89c1)">
     <use xlink:href="#C0_0_55a925d3e7" x="76.92152" y="304.14126" style="fill: #1f77b4"/>
    </g>
    <g clip-path="url(#p1c073f89c1)">
     <use xlink:href="#C0_0_55a925d3e7" x="81.256269" y="301.818923" style="fill: #1f77b4"/>
    </g>
    <g clip-path="url(#p1c073f89c1)">
     <use xlink:href="#C0_0_55a925d3e7" x="79.630736" y="297.260262" style="fill: #1f77b4"/>
    </g>
    <g clip-path="url(#p1c073f89c1)">
     <use xlink:href="#C0_0_55a925d3e7" x="83.894535" y="303.969235" style="fill: #1f77b4"/>
    </g>
    <g clip-path="url(#p1c073f89c1)">
     <use xlink:href="#C0_0_55a925d3e7" x="79.13351" y="248.147136" style="fill: #1f77b4"/>
    </g>
    <g clip-path="url(#p1c073f89c1)">
     <use xlink:href="#C0_0_55a925d3e7" x="82.905782" y="302.076961" style="fill: #1f77b4"/>
    </g>
    <g clip-path="url(#p1c073f89c1)">
     <use xlink:href="#C0_0_55a925d3e7" x="79.305186" y="303.625185" style="fill: #1f77b4"/>
    </g>
    <g clip-path="url(#p1c073f89c1)">
     <use xlink:href="#C0_0_55a925d3e7" x="79.04325" y="292.787613" style="fill: #1f77b4"/>
    </g>
    <g clip-path="url(#p1c073f89c1)">
     <use xlink:href="#C0_0_55a925d3e7" x="82.417341" y="298.980511" style="fill: #1f77b4"/>
    </g>
    <g clip-path="url(#p1c073f89c1)">
     <use xlink:href="#C0_0_55a925d3e7" x="84.849716" y="301.732911" style="fill: #1f77b4"/>
    </g>
    <g clip-path="url(#p1c073f89c1)">
     <use xlink:href="#C0_0_55a925d3e7" x="84.013524" y="299.238549" style="fill: #1f77b4"/>
    </g>
    <g clip-path="url(#p1c073f89c1)">
     <use xlink:href="#C0_0_55a925d3e7" x="77.567043" y="289.347114" style="fill: #1f77b4"/>
    </g>
    <g clip-path="url(#p1c073f89c1)">
     <use xlink:href="#C0_0_55a925d3e7" x="78.876177" y="304.227273" style="fill: #1f77b4"/>
    </g>
    <g clip-path="url(#p1c073f89c1)">
     <use xlink:href="#C0_0_55a925d3e7" x="77.867729" y="304.227273" style="fill: #1f77b4"/>
    </g>
    <g clip-path="url(#p1c073f89c1)">
     <use xlink:href="#C0_0_55a925d3e7" x="79.89591" y="292.529576" style="fill: #1f77b4"/>
    </g>
    <g clip-path="url(#p1c073f89c1)">
     <use xlink:href="#C0_0_55a925d3e7" x="77.340382" y="302.507023" style="fill: #1f77b4"/>
    </g>
    <g clip-path="url(#p1c073f89c1)">
     <use xlink:href="#C0_0_55a925d3e7" x="84.738995" y="303.711198" style="fill: #1f77b4"/>
    </g>
    <g clip-path="url(#p1c073f89c1)">
     <use xlink:href="#C0_0_55a925d3e7" x="80.235314" y="302.248986" style="fill: #1f77b4"/>
    </g>
    <g clip-path="url(#p1c073f89c1)">
     <use xlink:href="#C0_0_55a925d3e7" x="82.012765" y="293.131663" style="fill: #1f77b4"/>
    </g>
    <g clip-path="url(#p1c073f89c1)">
     <use xlink:href="#C0_0_55a925d3e7" x="79.85427" y="303.883223" style="fill: #1f77b4"/>
    </g>
    <g clip-path="url(#p1c073f89c1)">
     <use xlink:href="#C0_0_55a925d3e7" x="84.77811" y="304.055248" style="fill: #1f77b4"/>
    </g>
    <g clip-path="url(#p1c073f89c1)">
     <use xlink:href="#C0_0_55a925d3e7" x="78.107176" y="299.066524" style="fill: #1f77b4"/>
    </g>
    <g clip-path="url(#p1c073f89c1)">
     <use xlink:href="#C0_0_55a925d3e7" x="80.862928" y="304.14126" style="fill: #1f77b4"/>
    </g>
    <g clip-path="url(#p1c073f89c1)">
     <use xlink:href="#C0_0_55a925d3e7" x="82.774687" y="284.01434" style="fill: #1f77b4"/>
    </g>
    <g clip-path="url(#p1c073f89c1)">
     <use xlink:href="#C0_0_55a925d3e7" x="80.287854" y="303.10911" style="fill: #1f77b4"/>
    </g>
    <g clip-path="url(#p1c073f89c1)">
     <use xlink:href="#C0_0_55a925d3e7" x="85.064871" y="303.969235" style="fill: #1f77b4"/>
    </g>
    <g clip-path="url(#p1c073f89c1)">
     <use xlink:href="#C0_0_55a925d3e7" x="76.806465" y="301.560886" style="fill: #1f77b4"/>
    </g>
    <g clip-path="url(#p1c073f89c1)">
     <use xlink:href="#C0_0_55a925d3e7" x="83.107818" y="302.334998" style="fill: #1f77b4"/>
    </g>
    <g clip-path="url(#p1c073f89c1)">
     <use xlink:href="#C0_0_55a925d3e7" x="83.351476" y="303.45316" style="fill: #1f77b4"/>
    </g>
    <g clip-path="url(#p1c073f89c1)">
     <use xlink:href="#C0_0_55a925d3e7" x="82.981325" y="287.626864" style="fill: #1f77b4"/>
    </g>
    <g clip-path="url(#p1c073f89c1)">
     <use xlink:href="#C0_0_55a925d3e7" x="79.772423" y="295.970075" style="fill: #1f77b4"/>
    </g>
    <g clip-path="url(#p1c073f89c1)">
     <use xlink:href="#C0_0_55a925d3e7" x="79.813282" y="294.7659" style="fill: #1f77b4"/>
    </g>
    <g clip-path="url(#p1c073f89c1)">
     <use xlink:href="#C0_0_55a925d3e7" x="85.384578" y="303.367148" style="fill: #1f77b4"/>
    </g>
    <g clip-path="url(#p1c073f89c1)">
     <use xlink:href="#C0_0_55a925d3e7" x="77.991987" y="250.125423" style="fill: #1f77b4"/>
    </g>
    <g clip-path="url(#p1c073f89c1)">
     <use xlink:href="#C0_0_55a925d3e7" x="81.067686" y="293.217675" style="fill: #1f77b4"/>
    </g>
    <g clip-path="url(#p1c073f89c1)">
     <use xlink:href="#C0_0_55a925d3e7" x="81.748017" y="286.164652" style="fill: #1f77b4"/>
    </g>
    <g clip-path="url(#p1c073f89c1)">
     <use xlink:href="#C0_0_55a925d3e7" x="77.737563" y="289.519139" style="fill: #1f77b4"/>
    </g>
    <g clip-path="url(#p1c073f89c1)">
     <use xlink:href="#C0_0_55a925d3e7" x="82.936006" y="301.216836" style="fill: #1f77b4"/>
    </g>
    <g clip-path="url(#p1c073f89c1)">
     <use xlink:href="#C0_0_55a925d3e7" x="81.792337" y="303.625185" style="fill: #1f77b4"/>
    </g>
    <g clip-path="url(#p1c073f89c1)">
     <use xlink:href="#C0_0_55a925d3e7" x="86.167498" y="304.14126" style="fill: #1f77b4"/>
    </g>
    <g clip-path="url(#p1c073f89c1)">
     <use xlink:href="#C0_0_55a925d3e7" x="82.947533" y="299.410574" style="fill: #1f77b4"/>
    </g>
    <g clip-path="url(#p1c073f89c1)">
     <use xlink:href="#C0_0_55a925d3e7" x="83.744103" y="304.055248" style="fill: #1f77b4"/>
    </g>
    <g clip-path="url(#p1c073f89c1)">
     <use xlink:href="#C0_0_55a925d3e7" x="82.294088" y="301.388861" style="fill: #1f77b4"/>
    </g>
    <g clip-path="url(#p1c073f89c1)">
     <use xlink:href="#C0_0_55a925d3e7" x="79.069338" y="298.722474" style="fill: #1f77b4"/>
    </g>
    <g clip-path="url(#p1c073f89c1)">
     <use xlink:href="#C0_0_55a925d3e7" x="86.365316" y="302.937086" style="fill: #1f77b4"/>
    </g>
    <g clip-path="url(#p1c073f89c1)">
     <use xlink:href="#C0_0_55a925d3e7" x="85.107888" y="294.0778" style="fill: #1f77b4"/>
    </g>
    <g clip-path="url(#p1c073f89c1)">
     <use xlink:href="#C0_0_55a925d3e7" x="78.75029" y="304.227273" style="fill: #1f77b4"/>
    </g>
    <g clip-path="url(#p1c073f89c1)">
     <use xlink:href="#C0_0_55a925d3e7" x="80.166191" y="304.055248" style="fill: #1f77b4"/>
    </g>
    <g clip-path="url(#p1c073f89c1)">
     <use xlink:href="#C0_0_55a925d3e7" x="79.853642" y="297.260262" style="fill: #1f77b4"/>
    </g>
    <g clip-path="url(#p1c073f89c1)">
     <use xlink:href="#C0_0_55a925d3e7" x="80.807724" y="293.04565" style="fill: #1f77b4"/>
    </g>
    <g clip-path="url(#p1c073f89c1)">
     <use xlink:href="#C0_0_55a925d3e7" x="85.640348" y="304.227273" style="fill: #1f77b4"/>
    </g>
    <g clip-path="url(#p1c073f89c1)">
     <use xlink:href="#C0_0_55a925d3e7" x="79.198953" y="300.098674" style="fill: #1f77b4"/>
    </g>
    <g clip-path="url(#p1c073f89c1)">
     <use xlink:href="#C0_0_55a925d3e7" x="79.162757" y="303.883223" style="fill: #1f77b4"/>
    </g>
    <g clip-path="url(#p1c073f89c1)">
     <use xlink:href="#C0_0_55a925d3e7" x="85.536041" y="238.685763" style="fill: #1f77b4"/>
    </g>
    <g clip-path="url(#p1c073f89c1)">
     <use xlink:href="#C0_0_55a925d3e7" x="79.093358" y="300.098674" style="fill: #1f77b4"/>
    </g>
    <g clip-path="url(#p1c073f89c1)">
     <use xlink:href="#C0_0_55a925d3e7" x="81.692055" y="303.79721" style="fill: #1f77b4"/>
    </g>
    <g clip-path="url(#p1c073f89c1)">
     <use xlink:href="#C0_0_55a925d3e7" x="77.993003" y="304.227273" style="fill: #1f77b4"/>
    </g>
    <g clip-path="url(#p1c073f89c1)">
     <use xlink:href="#C0_0_55a925d3e7" x="80.071414" y="303.883223" style="fill: #1f77b4"/>
    </g>
    <g clip-path="url(#p1c073f89c1)">
     <use xlink:href="#C0_0_55a925d3e7" x="83.200517" y="296.314125" style="fill: #1f77b4"/>
    </g>
    <g clip-path="url(#p1c073f89c1)">
     <use xlink:href="#C0_0_55a925d3e7" x="76.772668" y="303.281135" style="fill: #1f77b4"/>
    </g>
    <g clip-path="url(#p1c073f89c1)">
     <use xlink:href="#C0_0_55a925d3e7" x="80.771494" y="291.927488" style="fill: #1f77b4"/>
    </g>
    <g clip-path="url(#p1c073f89c1)">
     <use xlink:href="#C0_0_55a925d3e7" x="79.391656" y="302.593036" style="fill: #1f77b4"/>
    </g>
    <g clip-path="url(#p1c073f89c1)">
     <use xlink:href="#C0_0_55a925d3e7" x="84.750983" y="286.938764" style="fill: #1f77b4"/>
    </g>
    <g clip-path="url(#p1c073f89c1)">
     <use xlink:href="#C0_0_55a925d3e7" x="81.84871" y="295.540012" style="fill: #1f77b4"/>
    </g>
    <g clip-path="url(#p1c073f89c1)">
     <use xlink:href="#C0_0_55a925d3e7" x="79.759192" y="304.14126" style="fill: #1f77b4"/>
    </g>
    <g clip-path="url(#p1c073f89c1)">
     <use xlink:href="#C0_0_55a925d3e7" x="86.000332" y="285.04649" style="fill: #1f77b4"/>
    </g>
    <g clip-path="url(#p1c073f89c1)">
     <use xlink:href="#C0_0_55a925d3e7" x="83.804968" y="299.238549" style="fill: #1f77b4"/>
    </g>
    <g clip-path="url(#p1c073f89c1)">
     <use xlink:href="#C0_0_55a925d3e7" x="78.295685" y="303.625185" style="fill: #1f77b4"/>
    </g>
    <g clip-path="url(#p1c073f89c1)">
     <use xlink:href="#C0_0_55a925d3e7" x="85.657059" y="298.636462" style="fill: #1f77b4"/>
    </g>
    <g clip-path="url(#p1c073f89c1)">
     <use xlink:href="#C0_0_55a925d3e7" x="82.976074" y="304.227273" style="fill: #1f77b4"/>
    </g>
    <g clip-path="url(#p1c073f89c1)">
     <use xlink:href="#C0_0_55a925d3e7" x="83.4772" y="287.196802" style="fill: #1f77b4"/>
    </g>
    <g clip-path="url(#p1c073f89c1)">
     <use xlink:href="#C0_0_55a925d3e7" x="83.167523" y="300.356711" style="fill: #1f77b4"/>
    </g>
    <g clip-path="url(#p1c073f89c1)">
     <use xlink:href="#C0_0_55a925d3e7" x="77.48595" y="304.14126" style="fill: #1f77b4"/>
    </g>
    <g clip-path="url(#p1c073f89c1)">
     <use xlink:href="#C0_0_55a925d3e7" x="83.136107" y="302.593036" style="fill: #1f77b4"/>
    </g>
    <g clip-path="url(#p1c073f89c1)">
     <use xlink:href="#C0_0_55a925d3e7" x="80.874264" y="303.625185" style="fill: #1f77b4"/>
    </g>
    <g clip-path="url(#p1c073f89c1)">
     <use xlink:href="#C0_0_55a925d3e7" x="83.821459" y="299.582599" style="fill: #1f77b4"/>
    </g>
    <g clip-path="url(#p1c073f89c1)">
     <use xlink:href="#C0_0_55a925d3e7" x="85.59466" y="275.069042" style="fill: #1f77b4"/>
    </g>
    <g clip-path="url(#p1c073f89c1)">
     <use xlink:href="#C0_0_55a925d3e7" x="77.234313" y="304.227273" style="fill: #1f77b4"/>
    </g>
    <g clip-path="url(#p1c073f89c1)">
     <use xlink:href="#C0_0_55a925d3e7" x="78.615486" y="300.528736" style="fill: #1f77b4"/>
    </g>
    <g clip-path="url(#p1c073f89c1)">
     <use xlink:href="#C0_0_55a925d3e7" x="77.490355" y="295.195962" style="fill: #1f77b4"/>
    </g>
    <g clip-path="url(#p1c073f89c1)">
     <use xlink:href="#C0_0_55a925d3e7" x="79.347079" y="304.227273" style="fill: #1f77b4"/>
    </g>
    <g clip-path="url(#p1c073f89c1)">
     <use xlink:href="#C0_0_55a925d3e7" x="78.859671" y="304.227273" style="fill: #1f77b4"/>
    </g>
    <g clip-path="url(#p1c073f89c1)">
     <use xlink:href="#C0_0_55a925d3e7" x="81.779656" y="304.14126" style="fill: #1f77b4"/>
    </g>
    <g clip-path="url(#p1c073f89c1)">
     <use xlink:href="#C0_0_55a925d3e7" x="83.271692" y="304.227273" style="fill: #1f77b4"/>
    </g>
    <g clip-path="url(#p1c073f89c1)">
     <use xlink:href="#C0_0_55a925d3e7" x="84.49384" y="304.14126" style="fill: #1f77b4"/>
    </g>
    <g clip-path="url(#p1c073f89c1)">
     <use xlink:href="#C0_0_55a925d3e7" x="77.293064" y="296.916212" style="fill: #1f77b4"/>
    </g>
    <g clip-path="url(#p1c073f89c1)">
     <use xlink:href="#C0_0_55a925d3e7" x="84.8158" y="302.765061" style="fill: #1f77b4"/>
    </g>
    <g clip-path="url(#p1c073f89c1)">
     <use xlink:href="#C0_0_55a925d3e7" x="85.883118" y="298.120387" style="fill: #1f77b4"/>
    </g>
    <g clip-path="url(#p1c073f89c1)">
     <use xlink:href="#C0_0_55a925d3e7" x="80.412891" y="298.034374" style="fill: #1f77b4"/>
    </g>
    <g clip-path="url(#p1c073f89c1)">
     <use xlink:href="#C0_0_55a925d3e7" x="76.845715" y="298.464437" style="fill: #1f77b4"/>
    </g>
    <g clip-path="url(#p1c073f89c1)">
     <use xlink:href="#C0_0_55a925d3e7" x="80.758274" y="287.712877" style="fill: #1f77b4"/>
    </g>
    <g clip-path="url(#p1c073f89c1)">
     <use xlink:href="#C0_0_55a925d3e7" x="78.085229" y="296.400137" style="fill: #1f77b4"/>
    </g>
    <g clip-path="url(#p1c073f89c1)">
     <use xlink:href="#C0_0_55a925d3e7" x="82.004247" y="303.367148" style="fill: #1f77b4"/>
    </g>
    <g clip-path="url(#p1c073f89c1)">
     <use xlink:href="#C0_0_55a925d3e7" x="79.752231" y="290.723313" style="fill: #1f77b4"/>
    </g>
    <g clip-path="url(#p1c073f89c1)">
     <use xlink:href="#C0_0_55a925d3e7" x="81.177476" y="297.604312" style="fill: #1f77b4"/>
    </g>
    <g clip-path="url(#p1c073f89c1)">
     <use xlink:href="#C0_0_55a925d3e7" x="81.208247" y="304.055248" style="fill: #1f77b4"/>
    </g>
    <g clip-path="url(#p1c073f89c1)">
     <use xlink:href="#C0_0_55a925d3e7" x="78.204147" y="303.711198" style="fill: #1f77b4"/>
    </g>
    <g clip-path="url(#p1c073f89c1)">
     <use xlink:href="#C0_0_55a925d3e7" x="80.387989" y="290.207239" style="fill: #1f77b4"/>
    </g>
    <g clip-path="url(#p1c073f89c1)">
     <use xlink:href="#C0_0_55a925d3e7" x="80.247202" y="304.14126" style="fill: #1f77b4"/>
    </g>
    <g clip-path="url(#p1c073f89c1)">
     <use xlink:href="#C0_0_55a925d3e7" x="80.742513" y="300.786774" style="fill: #1f77b4"/>
    </g>
    <g clip-path="url(#p1c073f89c1)">
     <use xlink:href="#C0_0_55a925d3e7" x="76.809157" y="298.980511" style="fill: #1f77b4"/>
    </g>
    <g clip-path="url(#p1c073f89c1)">
     <use xlink:href="#C0_0_55a925d3e7" x="80.871822" y="285.906615" style="fill: #1f77b4"/>
    </g>
    <g clip-path="url(#p1c073f89c1)">
     <use xlink:href="#C0_0_55a925d3e7" x="77.461511" y="302.507023" style="fill: #1f77b4"/>
    </g>
    <g clip-path="url(#p1c073f89c1)">
     <use xlink:href="#C0_0_55a925d3e7" x="83.336001" y="301.388861" style="fill: #1f77b4"/>
    </g>
    <g clip-path="url(#p1c073f89c1)">
     <use xlink:href="#C0_0_55a925d3e7" x="79.107068" y="304.14126" style="fill: #1f77b4"/>
    </g>
    <g clip-path="url(#p1c073f89c1)">
     <use xlink:href="#C0_0_55a925d3e7" x="80.920313" y="252.619785" style="fill: #1f77b4"/>
    </g>
    <g clip-path="url(#p1c073f89c1)">
     <use xlink:href="#C0_0_55a925d3e7" x="81.873482" y="289.777176" style="fill: #1f77b4"/>
    </g>
    <g clip-path="url(#p1c073f89c1)">
     <use xlink:href="#C0_0_55a925d3e7" x="83.782014" y="300.012661" style="fill: #1f77b4"/>
    </g>
    <g clip-path="url(#p1c073f89c1)">
     <use xlink:href="#C0_0_55a925d3e7" x="82.426794" y="298.292412" style="fill: #1f77b4"/>
    </g>
    <g clip-path="url(#p1c073f89c1)">
     <use xlink:href="#C0_0_55a925d3e7" x="78.714313" y="300.098674" style="fill: #1f77b4"/>
    </g>
    <g clip-path="url(#p1c073f89c1)">
     <use xlink:href="#C0_0_55a925d3e7" x="78.423671" y="274.98303" style="fill: #1f77b4"/>
    </g>
    <g clip-path="url(#p1c073f89c1)">
     <use xlink:href="#C0_0_55a925d3e7" x="78.029596" y="303.023098" style="fill: #1f77b4"/>
    </g>
    <g clip-path="url(#p1c073f89c1)">
     <use xlink:href="#C0_0_55a925d3e7" x="76.76461" y="304.227273" style="fill: #1f77b4"/>
    </g>
   </g>
   <g id="PathCollection_2">
    <defs>
     <path id="C1_0_631f83b379" d="M 0 4 
C 1.060812 4 2.078319 3.578535 2.828427 2.828427 
C 3.578535 2.078319 4 1.060812 4 -0 
C 4 -1.060812 3.578535 -2.078319 2.828427 -2.828427 
C 2.078319 -3.578535 1.060812 -4 0 -4 
C -1.060812 -4 -2.078319 -3.578535 -2.828427 -2.828427 
C -3.578535 -2.078319 -4 -1.060812 -4 0 
C -4 1.060812 -3.578535 2.078319 -2.828427 2.828427 
C -2.078319 3.578535 -1.060812 4 0 4 
z
"/>
    </defs>
    <g clip-path="url(#p1c073f89c1)">
     <use xlink:href="#C1_0_631f83b379" x="129.491879" y="195.077436" style="fill: #ff7f0e"/>
    </g>
    <g clip-path="url(#p1c073f89c1)">
     <use xlink:href="#C1_0_631f83b379" x="131.743762" y="258.382621" style="fill: #ff7f0e"/>
    </g>
    <g clip-path="url(#p1c073f89c1)">
     <use xlink:href="#C1_0_631f83b379" x="130.18927" y="264.403495" style="fill: #ff7f0e"/>
    </g>
    <g clip-path="url(#p1c073f89c1)">
     <use xlink:href="#C1_0_631f83b379" x="134.747453" y="242.986387" style="fill: #ff7f0e"/>
    </g>
    <g clip-path="url(#p1c073f89c1)">
     <use xlink:href="#C1_0_631f83b379" x="127.905638" y="283.068203" style="fill: #ff7f0e"/>
    </g>
    <g clip-path="url(#p1c073f89c1)">
     <use xlink:href="#C1_0_631f83b379" x="128.724721" y="261.82312" style="fill: #ff7f0e"/>
    </g>
    <g clip-path="url(#p1c073f89c1)">
     <use xlink:href="#C1_0_631f83b379" x="134.205686" y="191.120862" style="fill: #ff7f0e"/>
    </g>
    <g clip-path="url(#p1c073f89c1)">
     <use xlink:href="#C1_0_631f83b379" x="127.262125" y="155.941758" style="fill: #ff7f0e"/>
    </g>
    <g clip-path="url(#p1c073f89c1)">
     <use xlink:href="#C1_0_631f83b379" x="128.094847" y="273.176768" style="fill: #ff7f0e"/>
    </g>
    <g clip-path="url(#p1c073f89c1)">
     <use xlink:href="#C1_0_631f83b379" x="128.117147" y="270.510381" style="fill: #ff7f0e"/>
    </g>
    <g clip-path="url(#p1c073f89c1)">
     <use xlink:href="#C1_0_631f83b379" x="128.734687" y="232.148815" style="fill: #ff7f0e"/>
    </g>
    <g clip-path="url(#p1c073f89c1)">
     <use xlink:href="#C1_0_631f83b379" x="134.415341" y="115.687918" style="fill: #ff7f0e"/>
    </g>
    <g clip-path="url(#p1c073f89c1)">
     <use xlink:href="#C1_0_631f83b379" x="133.656725" y="200.06616" style="fill: #ff7f0e"/>
    </g>
   </g>
   <g id="PathCollection_3">
    <defs>
     <path id="C2_0_3acc92691a" d="M 0 4 
C 1.060812 4 2.078319 3.578535 2.828427 2.828427 
C 3.578535 2.078319 4 1.060812 4 -0 
C 4 -1.060812 3.578535 -2.078319 2.828427 -2.828427 
C 2.078319 -3.578535 1.060812 -4 0 -4 
C -1.060812 -4 -2.078319 -3.578535 -2.828427 -2.828427 
C -3.578535 -2.078319 -4 -1.060812 -4 0 
C -4 1.060812 -3.578535 2.078319 -2.828427 2.828427 
C -2.078319 3.578535 -1.060812 4 0 4 
z
"/>
    </defs>
    <g clip-path="url(#p1c073f89c1)">
     <use xlink:href="#C2_0_3acc92691a" x="180.040029" y="160.84447" style="fill: #2ca02c"/>
    </g>
    <g clip-path="url(#p1c073f89c1)">
     <use xlink:href="#C2_0_3acc92691a" x="174.697504" y="174.004379" style="fill: #2ca02c"/>
    </g>
    <g clip-path="url(#p1c073f89c1)">
     <use xlink:href="#C2_0_3acc92691a" x="179.964925" y="302.162973" style="fill: #2ca02c"/>
    </g>
    <g clip-path="url(#p1c073f89c1)">
     <use xlink:href="#C2_0_3acc92691a" x="176.192891" y="24.772727" style="fill: #2ca02c"/>
    </g>
    <g clip-path="url(#p1c073f89c1)">
     <use xlink:href="#C2_0_3acc92691a" x="180.409132" y="148.200635" style="fill: #2ca02c"/>
    </g>
   </g>
   <g id="PathCollection_4">
    <defs>
     <path id="C3_0_92d29f962e" d="M 0 4 
C 1.060812 4 2.078319 3.578535 2.828427 2.828427 
C 3.578535 2.078319 4 1.060812 4 -0 
C 4 -1.060812 3.578535 -2.078319 2.828427 -2.828427 
C 2.078319 -3.578535 1.060812 -4 0 -4 
C -1.060812 -4 -2.078319 -3.578535 -2.828427 -2.828427 
C -3.578535 -2.078319 -4 -1.060812 -4 0 
C -4 1.060812 -3.578535 2.078319 -2.828427 2.828427 
C -2.078319 3.578535 -1.060812 4 0 4 
z
"/>
    </defs>
    <g clip-path="url(#p1c073f89c1)">
     <use xlink:href="#C3_0_92d29f962e" x="224.900491" y="251.243585" style="fill: #d62728"/>
    </g>
    <g clip-path="url(#p1c073f89c1)">
     <use xlink:href="#C3_0_92d29f962e" x="229.121108" y="117.236143" style="fill: #d62728"/>
    </g>
    <g clip-path="url(#p1c073f89c1)">
     <use xlink:href="#C3_0_92d29f962e" x="230.034325" y="209.613545" style="fill: #d62728"/>
    </g>
   </g>
   <g id="PathCollection_5">
    <defs>
     <path id="C4_0_1773bff364" d="M 0 4 
C 1.060812 4 2.078319 3.578535 2.828427 2.828427 
C 3.578535 2.078319 4 1.060812 4 -0 
C 4 -1.060812 3.578535 -2.078319 2.828427 -2.828427 
C 2.078319 -3.578535 1.060812 -4 0 -4 
C -1.060812 -4 -2.078319 -3.578535 -2.828427 -2.828427 
C -3.578535 -2.078319 -4 -1.060812 -4 0 
C -4 1.060812 -3.578535 2.078319 -2.828427 2.828427 
C -2.078319 3.578535 -1.060812 4 0 4 
z
"/>
    </defs>
    <g clip-path="url(#p1c073f89c1)">
     <use xlink:href="#C4_0_1773bff364" x="273.62175" y="153.705434" style="fill: #9467bd"/>
    </g>
    <g clip-path="url(#p1c073f89c1)">
     <use xlink:href="#C4_0_1773bff364" x="275.727197" y="102.011934" style="fill: #9467bd"/>
    </g>
   </g>
   <g id="PathCollection_6">
    <defs>
     <path id="C5_0_e57e16d18c" d="M 0 4 
C 1.060812 4 2.078319 3.578535 2.828427 2.828427 
C 3.578535 2.078319 4 1.060812 4 -0 
C 4 -1.060812 3.578535 -2.078319 2.828427 -2.828427 
C 2.078319 -3.578535 1.060812 -4 0 -4 
C -1.060812 -4 -2.078319 -3.578535 -2.828427 -2.828427 
C -3.578535 -2.078319 -4 -1.060812 -4 0 
C -4 1.060812 -3.578535 2.078319 -2.828427 2.828427 
C -2.078319 3.578535 -1.060812 4 0 4 
z
"/>
    </defs>
    <g clip-path="url(#p1c073f89c1)">
     <use xlink:href="#C5_0_e57e16d18c" x="320.454064" y="118.354305" style="fill: #8c564b"/>
    </g>
    <g clip-path="url(#p1c073f89c1)">
     <use xlink:href="#C5_0_e57e16d18c" x="327.957584" y="182.347589" style="fill: #8c564b"/>
    </g>
    <g clip-path="url(#p1c073f89c1)">
     <use xlink:href="#C5_0_e57e16d18c" x="326.227851" y="169.703755" style="fill: #8c564b"/>
    </g>
    <g clip-path="url(#p1c073f89c1)">
     <use xlink:href="#C5_0_e57e16d18c" x="327.159704" y="173.918366" style="fill: #8c564b"/>
    </g>
    <g clip-path="url(#p1c073f89c1)">
     <use xlink:href="#C5_0_e57e16d18c" x="324.455335" y="106.312558" style="fill: #8c564b"/>
    </g>
    <g clip-path="url(#p1c073f89c1)">
     <use xlink:href="#C5_0_e57e16d18c" x="324.790134" y="161.274532" style="fill: #8c564b"/>
    </g>
    <g clip-path="url(#p1c073f89c1)">
     <use xlink:href="#C5_0_e57e16d18c" x="328.074745" y="194.045287" style="fill: #8c564b"/>
    </g>
    <g clip-path="url(#p1c073f89c1)">
     <use xlink:href="#C5_0_e57e16d18c" x="327.358229" y="194.819399" style="fill: #8c564b"/>
    </g>
    <g clip-path="url(#p1c073f89c1)">
     <use xlink:href="#C5_0_e57e16d18c" x="321.628253" y="178.21899" style="fill: #8c564b"/>
    </g>
    <g clip-path="url(#p1c073f89c1)">
     <use xlink:href="#C5_0_e57e16d18c" x="322.760905" y="160.070357" style="fill: #8c564b"/>
    </g>
    <g clip-path="url(#p1c073f89c1)">
     <use xlink:href="#C5_0_e57e16d18c" x="320.700463" y="225.267817" style="fill: #8c564b"/>
    </g>
    <g clip-path="url(#p1c073f89c1)">
     <use xlink:href="#C5_0_e57e16d18c" x="326.456424" y="208.065321" style="fill: #8c564b"/>
    </g>
   </g>
  </g>
 </g>
 <defs>
  <clipPath id="p1c073f89c1">
   <rect x="57.3" y="10.8" width="291.9" height="307.4"/>
  </clipPath>
 </defs>
</svg>
