<?xml version="1.0" encoding="utf-8" standalone="no"?>
<!DOCTYPE svg PUBLIC "-//W3C//DTD SVG 1.1//EN"
  "http://www.w3.org/Graphics/SVG/1.1/DTD/svg11.dtd">
<svg xmlns:xlink="http://www.w3.org/1999/xlink" width="360pt" height="360pt" viewBox="0 0 360 360" xmlns="http://www.w3.org/2000/svg" version="1.1">
 <metadata>
  <rdf:RDF xmlns:dc="http://purl.org/dc/elements/1.1/" xmlns:cc="http://creativecommons.org/ns#" xmlns:rdf="http://www.w3.org/1999/02/22-rdf-syntax-ns#">
   <cc:Work>
    <dc:type rdf:resource="http://purl.org/dc/dcmitype/StillImage"/>
    <dc:date>2023-04-13T20:56:35.579671</dc:date>
    <dc:format>image/svg+xml</dc:format>
    <dc:creator>
     <cc:Agent>
      <dc:title>Matplotlib v3.5.1, https://matplotlib.org/</dc:title>
     </cc:Agent>
    </dc:creator>
   </cc:Work>
  </rdf:RDF>
 </metadata>
 <defs>
  <style type="text/css">*{stroke-linejoin: round; stroke-linecap: butt}</style>
 </defs>
 <g id="figure_1">
  <g id="patch_1">
   <path d="M 0 360 
L 360 360 
L 360 0 
L 0 0 
L 0 360 
z
" style="fill: none"/>
  </g>
  <g id="axes_1">
   <g id="patch_2">
    <path d="M 59.3 318.2 
L 349.2 318.2 
L 349.2 10.8 
L 59.3 10.8 
z
" style="fill: #ffffff"/>
   </g>
   <g id="matplotlib.axis_1">
    <g id="xtick_1">
     <g id="line2d_1">
      <defs>
       <path id="mab40c8e346" d="M 0 0 
L 0 3.5 
" style="stroke: #000000; stroke-width: 0.8"/>
      </defs>
      <g>
       <use xlink:href="#mab40c8e346" x="83.458333" y="318.2" style="stroke: #000000; stroke-width: 0.8"/>
      </g>
     </g>
     <g id="text_1">
      <!-- 0 -->
      <g transform="translate(80.277083 332.798437)scale(0.1 -0.1)">
       <defs>
        <path id="DejaVuSans-30" d="M 2034 4250 
Q 1547 4250 1301 3770 
Q 1056 3291 1056 2328 
Q 1056 1369 1301 889 
Q 1547 409 2034 409 
Q 2525 409 2770 889 
Q 3016 1369 3016 2328 
Q 3016 3291 2770 3770 
Q 2525 4250 2034 4250 
z
M 2034 4750 
Q 2819 4750 3233 4129 
Q 3647 3509 3647 2328 
Q 3647 1150 3233 529 
Q 2819 -91 2034 -91 
Q 1250 -91 836 529 
Q 422 1150 422 2328 
Q 422 3509 836 4129 
Q 1250 4750 2034 4750 
z
" transform="scale(0.015625)"/>
       </defs>
       <use xlink:href="#DejaVuSans-30"/>
      </g>
     </g>
    </g>
    <g id="xtick_2">
     <g id="line2d_2">
      <g>
       <use xlink:href="#mab40c8e346" x="131.775" y="318.2" style="stroke: #000000; stroke-width: 0.8"/>
      </g>
     </g>
     <g id="text_2">
      <!-- 1 -->
      <g transform="translate(128.59375 332.798437)scale(0.1 -0.1)">
       <defs>
        <path id="DejaVuSans-31" d="M 794 531 
L 1825 531 
L 1825 4091 
L 703 3866 
L 703 4441 
L 1819 4666 
L 2450 4666 
L 2450 531 
L 3481 531 
L 3481 0 
L 794 0 
L 794 531 
z
" transform="scale(0.015625)"/>
       </defs>
       <use xlink:href="#DejaVuSans-31"/>
      </g>
     </g>
    </g>
    <g id="xtick_3">
     <g id="line2d_3">
      <g>
       <use xlink:href="#mab40c8e346" x="180.091667" y="318.2" style="stroke: #000000; stroke-width: 0.8"/>
      </g>
     </g>
     <g id="text_3">
      <!-- 2 -->
      <g transform="translate(176.910417 332.798437)scale(0.1 -0.1)">
       <defs>
        <path id="DejaVuSans-32" d="M 1228 531 
L 3431 531 
L 3431 0 
L 469 0 
L 469 531 
Q 828 903 1448 1529 
Q 2069 2156 2228 2338 
Q 2531 2678 2651 2914 
Q 2772 3150 2772 3378 
Q 2772 3750 2511 3984 
Q 2250 4219 1831 4219 
Q 1534 4219 1204 4116 
Q 875 4013 500 3803 
L 500 4441 
Q 881 4594 1212 4672 
Q 1544 4750 1819 4750 
Q 2544 4750 2975 4387 
Q 3406 4025 3406 3419 
Q 3406 3131 3298 2873 
Q 3191 2616 2906 2266 
Q 2828 2175 2409 1742 
Q 1991 1309 1228 531 
z
" transform="scale(0.015625)"/>
       </defs>
       <use xlink:href="#DejaVuSans-32"/>
      </g>
     </g>
    </g>
    <g id="xtick_4">
     <g id="line2d_4">
      <g>
       <use xlink:href="#mab40c8e346" x="228.408333" y="318.2" style="stroke: #000000; stroke-width: 0.8"/>
      </g>
     </g>
     <g id="text_4">
      <!-- 3 -->
      <g transform="translate(225.227083 332.798437)scale(0.1 -0.1)">
       <defs>
        <path id="DejaVuSans-33" d="M 2597 2516 
Q 3050 2419 3304 2112 
Q 3559 1806 3559 1356 
Q 3559 666 3084 287 
Q 2609 -91 1734 -91 
Q 1441 -91 1130 -33 
Q 819 25 488 141 
L 488 750 
Q 750 597 1062 519 
Q 1375 441 1716 441 
Q 2309 441 2620 675 
Q 2931 909 2931 1356 
Q 2931 1769 2642 2001 
Q 2353 2234 1838 2234 
L 1294 2234 
L 1294 2753 
L 1863 2753 
Q 2328 2753 2575 2939 
Q 2822 3125 2822 3475 
Q 2822 3834 2567 4026 
Q 2313 4219 1838 4219 
Q 1578 4219 1281 4162 
Q 984 4106 628 3988 
L 628 4550 
Q 988 4650 1302 4700 
Q 1616 4750 1894 4750 
Q 2613 4750 3031 4423 
Q 3450 4097 3450 3541 
Q 3450 3153 3228 2886 
Q 3006 2619 2597 2516 
z
" transform="scale(0.015625)"/>
       </defs>
       <use xlink:href="#DejaVuSans-33"/>
      </g>
     </g>
    </g>
    <g id="xtick_5">
     <g id="line2d_5">
      <g>
       <use xlink:href="#mab40c8e346" x="276.725" y="318.2" style="stroke: #000000; stroke-width: 0.8"/>
      </g>
     </g>
     <g id="text_5">
      <!-- 4 -->
      <g transform="translate(273.54375 332.798437)scale(0.1 -0.1)">
       <defs>
        <path id="DejaVuSans-34" d="M 2419 4116 
L 825 1625 
L 2419 1625 
L 2419 4116 
z
M 2253 4666 
L 3047 4666 
L 3047 1625 
L 3713 1625 
L 3713 1100 
L 3047 1100 
L 3047 0 
L 2419 0 
L 2419 1100 
L 313 1100 
L 313 1709 
L 2253 4666 
z
" transform="scale(0.015625)"/>
       </defs>
       <use xlink:href="#DejaVuSans-34"/>
      </g>
     </g>
    </g>
    <g id="xtick_6">
     <g id="line2d_6">
      <g>
       <use xlink:href="#mab40c8e346" x="325.041667" y="318.2" style="stroke: #000000; stroke-width: 0.8"/>
      </g>
     </g>
     <g id="text_6">
      <!-- 5 -->
      <g transform="translate(321.860417 332.798437)scale(0.1 -0.1)">
       <defs>
        <path id="DejaVuSans-35" d="M 691 4666 
L 3169 4666 
L 3169 4134 
L 1269 4134 
L 1269 2991 
Q 1406 3038 1543 3061 
Q 1681 3084 1819 3084 
Q 2600 3084 3056 2656 
Q 3513 2228 3513 1497 
Q 3513 744 3044 326 
Q 2575 -91 1722 -91 
Q 1428 -91 1123 -41 
Q 819 9 494 109 
L 494 744 
Q 775 591 1075 516 
Q 1375 441 1709 441 
Q 2250 441 2565 725 
Q 2881 1009 2881 1497 
Q 2881 1984 2565 2268 
Q 2250 2553 1709 2553 
Q 1456 2553 1204 2497 
Q 953 2441 691 2322 
L 691 4666 
z
" transform="scale(0.015625)"/>
       </defs>
       <use xlink:href="#DejaVuSans-35"/>
      </g>
     </g>
    </g>
    <g id="text_7">
     <!-- cluster -->
     <g transform="translate(187.246094 346.476562)scale(0.1 -0.1)">
      <defs>
       <path id="DejaVuSans-63" d="M 3122 3366 
L 3122 2828 
Q 2878 2963 2633 3030 
Q 2388 3097 2138 3097 
Q 1578 3097 1268 2742 
Q 959 2388 959 1747 
Q 959 1106 1268 751 
Q 1578 397 2138 397 
Q 2388 397 2633 464 
Q 2878 531 3122 666 
L 3122 134 
Q 2881 22 2623 -34 
Q 2366 -91 2075 -91 
Q 1284 -91 818 406 
Q 353 903 353 1747 
Q 353 2603 823 3093 
Q 1294 3584 2113 3584 
Q 2378 3584 2631 3529 
Q 2884 3475 3122 3366 
z
" transform="scale(0.015625)"/>
       <path id="DejaVuSans-6c" d="M 603 4863 
L 1178 4863 
L 1178 0 
L 603 0 
L 603 4863 
z
" transform="scale(0.015625)"/>
       <path id="DejaVuSans-75" d="M 544 1381 
L 544 3500 
L 1119 3500 
L 1119 1403 
Q 1119 906 1312 657 
Q 1506 409 1894 409 
Q 2359 409 2629 706 
Q 2900 1003 2900 1516 
L 2900 3500 
L 3475 3500 
L 3475 0 
L 2900 0 
L 2900 538 
Q 2691 219 2414 64 
Q 2138 -91 1772 -91 
Q 1169 -91 856 284 
Q 544 659 544 1381 
z
M 1991 3584 
L 1991 3584 
z
" transform="scale(0.015625)"/>
       <path id="DejaVuSans-73" d="M 2834 3397 
L 2834 2853 
Q 2591 2978 2328 3040 
Q 2066 3103 1784 3103 
Q 1356 3103 1142 2972 
Q 928 2841 928 2578 
Q 928 2378 1081 2264 
Q 1234 2150 1697 2047 
L 1894 2003 
Q 2506 1872 2764 1633 
Q 3022 1394 3022 966 
Q 3022 478 2636 193 
Q 2250 -91 1575 -91 
Q 1294 -91 989 -36 
Q 684 19 347 128 
L 347 722 
Q 666 556 975 473 
Q 1284 391 1588 391 
Q 1994 391 2212 530 
Q 2431 669 2431 922 
Q 2431 1156 2273 1281 
Q 2116 1406 1581 1522 
L 1381 1569 
Q 847 1681 609 1914 
Q 372 2147 372 2553 
Q 372 3047 722 3315 
Q 1072 3584 1716 3584 
Q 2034 3584 2315 3537 
Q 2597 3491 2834 3397 
z
" transform="scale(0.015625)"/>
       <path id="DejaVuSans-74" d="M 1172 4494 
L 1172 3500 
L 2356 3500 
L 2356 3053 
L 1172 3053 
L 1172 1153 
Q 1172 725 1289 603 
Q 1406 481 1766 481 
L 2356 481 
L 2356 0 
L 1766 0 
Q 1100 0 847 248 
Q 594 497 594 1153 
L 594 3053 
L 172 3053 
L 172 3500 
L 594 3500 
L 594 4494 
L 1172 4494 
z
" transform="scale(0.015625)"/>
       <path id="DejaVuSans-65" d="M 3597 1894 
L 3597 1613 
L 953 1613 
Q 991 1019 1311 708 
Q 1631 397 2203 397 
Q 2534 397 2845 478 
Q 3156 559 3463 722 
L 3463 178 
Q 3153 47 2828 -22 
Q 2503 -91 2169 -91 
Q 1331 -91 842 396 
Q 353 884 353 1716 
Q 353 2575 817 3079 
Q 1281 3584 2069 3584 
Q 2775 3584 3186 3129 
Q 3597 2675 3597 1894 
z
M 3022 2063 
Q 3016 2534 2758 2815 
Q 2500 3097 2075 3097 
Q 1594 3097 1305 2825 
Q 1016 2553 972 2059 
L 3022 2063 
z
" transform="scale(0.015625)"/>
       <path id="DejaVuSans-72" d="M 2631 2963 
Q 2534 3019 2420 3045 
Q 2306 3072 2169 3072 
Q 1681 3072 1420 2755 
Q 1159 2438 1159 1844 
L 1159 0 
L 581 0 
L 581 3500 
L 1159 3500 
L 1159 2956 
Q 1341 3275 1631 3429 
Q 1922 3584 2338 3584 
Q 2397 3584 2469 3576 
Q 2541 3569 2628 3553 
L 2631 2963 
z
" transform="scale(0.015625)"/>
      </defs>
      <use xlink:href="#DejaVuSans-63"/>
      <use xlink:href="#DejaVuSans-6c" x="54.980469"/>
      <use xlink:href="#DejaVuSans-75" x="82.763672"/>
      <use xlink:href="#DejaVuSans-73" x="146.142578"/>
      <use xlink:href="#DejaVuSans-74" x="198.242188"/>
      <use xlink:href="#DejaVuSans-65" x="237.451172"/>
      <use xlink:href="#DejaVuSans-72" x="298.974609"/>
     </g>
    </g>
   </g>
   <g id="matplotlib.axis_2">
    <g id="ytick_1">
     <g id="line2d_7">
      <defs>
       <path id="me58b5ccbee" d="M 0 0 
L -3.5 0 
" style="stroke: #000000; stroke-width: 0.8"/>
      </defs>
      <g>
       <use xlink:href="#me58b5ccbee" x="59.3" y="297.51365" style="stroke: #000000; stroke-width: 0.8"/>
      </g>
     </g>
     <g id="text_8">
      <!-- −100 -->
      <g transform="translate(24.832813 301.312869)scale(0.1 -0.1)">
       <defs>
        <path id="DejaVuSans-2212" d="M 678 2272 
L 4684 2272 
L 4684 1741 
L 678 1741 
L 678 2272 
z
" transform="scale(0.015625)"/>
       </defs>
       <use xlink:href="#DejaVuSans-2212"/>
       <use xlink:href="#DejaVuSans-31" x="83.789062"/>
       <use xlink:href="#DejaVuSans-30" x="147.412109"/>
       <use xlink:href="#DejaVuSans-30" x="211.035156"/>
      </g>
     </g>
    </g>
    <g id="ytick_2">
     <g id="line2d_8">
      <g>
       <use xlink:href="#me58b5ccbee" x="59.3" y="255.553508" style="stroke: #000000; stroke-width: 0.8"/>
      </g>
     </g>
     <g id="text_9">
      <!-- −50 -->
      <g transform="translate(31.195313 259.352727)scale(0.1 -0.1)">
       <use xlink:href="#DejaVuSans-2212"/>
       <use xlink:href="#DejaVuSans-35" x="83.789062"/>
       <use xlink:href="#DejaVuSans-30" x="147.412109"/>
      </g>
     </g>
    </g>
    <g id="ytick_3">
     <g id="line2d_9">
      <g>
       <use xlink:href="#me58b5ccbee" x="59.3" y="213.593366" style="stroke: #000000; stroke-width: 0.8"/>
      </g>
     </g>
     <g id="text_10">
      <!-- 0 -->
      <g transform="translate(45.9375 217.392585)scale(0.1 -0.1)">
       <use xlink:href="#DejaVuSans-30"/>
      </g>
     </g>
    </g>
    <g id="ytick_4">
     <g id="line2d_10">
      <g>
       <use xlink:href="#me58b5ccbee" x="59.3" y="171.633224" style="stroke: #000000; stroke-width: 0.8"/>
      </g>
     </g>
     <g id="text_11">
      <!-- 50 -->
      <g transform="translate(39.575 175.432443)scale(0.1 -0.1)">
       <use xlink:href="#DejaVuSans-35"/>
       <use xlink:href="#DejaVuSans-30" x="63.623047"/>
      </g>
     </g>
    </g>
    <g id="ytick_5">
     <g id="line2d_11">
      <g>
       <use xlink:href="#me58b5ccbee" x="59.3" y="129.673082" style="stroke: #000000; stroke-width: 0.8"/>
      </g>
     </g>
     <g id="text_12">
      <!-- 100 -->
      <g transform="translate(33.2125 133.472301)scale(0.1 -0.1)">
       <use xlink:href="#DejaVuSans-31"/>
       <use xlink:href="#DejaVuSans-30" x="63.623047"/>
       <use xlink:href="#DejaVuSans-30" x="127.246094"/>
      </g>
     </g>
    </g>
    <g id="ytick_6">
     <g id="line2d_12">
      <g>
       <use xlink:href="#me58b5ccbee" x="59.3" y="87.71294" style="stroke: #000000; stroke-width: 0.8"/>
      </g>
     </g>
     <g id="text_13">
      <!-- 150 -->
      <g transform="translate(33.2125 91.512159)scale(0.1 -0.1)">
       <use xlink:href="#DejaVuSans-31"/>
       <use xlink:href="#DejaVuSans-35" x="63.623047"/>
       <use xlink:href="#DejaVuSans-30" x="127.246094"/>
      </g>
     </g>
    </g>
    <g id="ytick_7">
     <g id="line2d_13">
      <g>
       <use xlink:href="#me58b5ccbee" x="59.3" y="45.752798" style="stroke: #000000; stroke-width: 0.8"/>
      </g>
     </g>
     <g id="text_14">
      <!-- 200 -->
      <g transform="translate(33.2125 49.552017)scale(0.1 -0.1)">
       <use xlink:href="#DejaVuSans-32"/>
       <use xlink:href="#DejaVuSans-30" x="63.623047"/>
       <use xlink:href="#DejaVuSans-30" x="127.246094"/>
      </g>
     </g>
    </g>
    <g id="text_15">
     <!-- Variation de stock -->
     <g transform="translate(18.753125 209.380469)rotate(-90)scale(0.1 -0.1)">
      <defs>
       <path id="DejaVuSans-56" d="M 1831 0 
L 50 4666 
L 709 4666 
L 2188 738 
L 3669 4666 
L 4325 4666 
L 2547 0 
L 1831 0 
z
" transform="scale(0.015625)"/>
       <path id="DejaVuSans-61" d="M 2194 1759 
Q 1497 1759 1228 1600 
Q 959 1441 959 1056 
Q 959 750 1161 570 
Q 1363 391 1709 391 
Q 2188 391 2477 730 
Q 2766 1069 2766 1631 
L 2766 1759 
L 2194 1759 
z
M 3341 1997 
L 3341 0 
L 2766 0 
L 2766 531 
Q 2569 213 2275 61 
Q 1981 -91 1556 -91 
Q 1019 -91 701 211 
Q 384 513 384 1019 
Q 384 1609 779 1909 
Q 1175 2209 1959 2209 
L 2766 2209 
L 2766 2266 
Q 2766 2663 2505 2880 
Q 2244 3097 1772 3097 
Q 1472 3097 1187 3025 
Q 903 2953 641 2809 
L 641 3341 
Q 956 3463 1253 3523 
Q 1550 3584 1831 3584 
Q 2591 3584 2966 3190 
Q 3341 2797 3341 1997 
z
" transform="scale(0.015625)"/>
       <path id="DejaVuSans-69" d="M 603 3500 
L 1178 3500 
L 1178 0 
L 603 0 
L 603 3500 
z
M 603 4863 
L 1178 4863 
L 1178 4134 
L 603 4134 
L 603 4863 
z
" transform="scale(0.015625)"/>
       <path id="DejaVuSans-6f" d="M 1959 3097 
Q 1497 3097 1228 2736 
Q 959 2375 959 1747 
Q 959 1119 1226 758 
Q 1494 397 1959 397 
Q 2419 397 2687 759 
Q 2956 1122 2956 1747 
Q 2956 2369 2687 2733 
Q 2419 3097 1959 3097 
z
M 1959 3584 
Q 2709 3584 3137 3096 
Q 3566 2609 3566 1747 
Q 3566 888 3137 398 
Q 2709 -91 1959 -91 
Q 1206 -91 779 398 
Q 353 888 353 1747 
Q 353 2609 779 3096 
Q 1206 3584 1959 3584 
z
" transform="scale(0.015625)"/>
       <path id="DejaVuSans-6e" d="M 3513 2113 
L 3513 0 
L 2938 0 
L 2938 2094 
Q 2938 2591 2744 2837 
Q 2550 3084 2163 3084 
Q 1697 3084 1428 2787 
Q 1159 2491 1159 1978 
L 1159 0 
L 581 0 
L 581 3500 
L 1159 3500 
L 1159 2956 
Q 1366 3272 1645 3428 
Q 1925 3584 2291 3584 
Q 2894 3584 3203 3211 
Q 3513 2838 3513 2113 
z
" transform="scale(0.015625)"/>
       <path id="DejaVuSans-20" transform="scale(0.015625)"/>
       <path id="DejaVuSans-64" d="M 2906 2969 
L 2906 4863 
L 3481 4863 
L 3481 0 
L 2906 0 
L 2906 525 
Q 2725 213 2448 61 
Q 2172 -91 1784 -91 
Q 1150 -91 751 415 
Q 353 922 353 1747 
Q 353 2572 751 3078 
Q 1150 3584 1784 3584 
Q 2172 3584 2448 3432 
Q 2725 3281 2906 2969 
z
M 947 1747 
Q 947 1113 1208 752 
Q 1469 391 1925 391 
Q 2381 391 2643 752 
Q 2906 1113 2906 1747 
Q 2906 2381 2643 2742 
Q 2381 3103 1925 3103 
Q 1469 3103 1208 2742 
Q 947 2381 947 1747 
z
" transform="scale(0.015625)"/>
       <path id="DejaVuSans-6b" d="M 581 4863 
L 1159 4863 
L 1159 1991 
L 2875 3500 
L 3609 3500 
L 1753 1863 
L 3688 0 
L 2938 0 
L 1159 1709 
L 1159 0 
L 581 0 
L 581 4863 
z
" transform="scale(0.015625)"/>
      </defs>
      <use xlink:href="#DejaVuSans-56"/>
      <use xlink:href="#DejaVuSans-61" x="60.658203"/>
      <use xlink:href="#DejaVuSans-72" x="121.9375"/>
      <use xlink:href="#DejaVuSans-69" x="163.050781"/>
      <use xlink:href="#DejaVuSans-61" x="190.833984"/>
      <use xlink:href="#DejaVuSans-74" x="252.113281"/>
      <use xlink:href="#DejaVuSans-69" x="291.322266"/>
      <use xlink:href="#DejaVuSans-6f" x="319.105469"/>
      <use xlink:href="#DejaVuSans-6e" x="380.287109"/>
      <use xlink:href="#DejaVuSans-20" x="443.666016"/>
      <use xlink:href="#DejaVuSans-64" x="475.453125"/>
      <use xlink:href="#DejaVuSans-65" x="538.929688"/>
      <use xlink:href="#DejaVuSans-20" x="600.453125"/>
      <use xlink:href="#DejaVuSans-73" x="632.240234"/>
      <use xlink:href="#DejaVuSans-74" x="684.339844"/>
      <use xlink:href="#DejaVuSans-6f" x="723.548828"/>
      <use xlink:href="#DejaVuSans-63" x="784.730469"/>
      <use xlink:href="#DejaVuSans-6b" x="839.710938"/>
     </g>
    </g>
   </g>
   <g id="line2d_14">
    <path d="M 59.3 213.593366 
L 349.2 213.593366 
" clip-path="url(#pab4a1c3671)" style="fill: none; stroke-dasharray: 1.85,0.8; stroke-dashoffset: 0; stroke: #000000; stroke-width: 0.5"/>
   </g>
   <g id="patch_3">
    <path d="M 59.3 318.2 
L 59.3 10.8 
" style="fill: none; stroke: #000000; stroke-width: 0.8; stroke-linejoin: miter; stroke-linecap: square"/>
   </g>
   <g id="patch_4">
    <path d="M 59.3 318.2 
L 349.2 318.2 
" style="fill: none; stroke: #000000; stroke-width: 0.8; stroke-linejoin: miter; stroke-linecap: square"/>
   </g>
   <g id="PathCollection_1">
    <defs>
     <path id="C0_0_5e9598a5fe" d="M 0 4 
C 1.060812 4 2.078319 3.578535 2.828427 2.828427 
C 3.578535 2.078319 4 1.060812 4 -0 
C 4 -1.060812 3.578535 -2.078319 2.828427 -2.828427 
C 2.078319 -3.578535 1.060812 -4 0 -4 
C -1.060812 -4 -2.078319 -3.578535 -2.828427 -2.828427 
C -3.578535 -2.078319 -4 -1.060812 -4 0 
C -4 1.060812 -3.578535 2.078319 -2.828427 2.828427 
C -2.078319 3.578535 -1.060812 4 0 4 
z
"/>
    </defs>
    <g clip-path="url(#pab4a1c3671)">
     <use xlink:href="#C0_0_5e9598a5fe" x="84.768821" y="213.593366" style="fill: #1f77b4"/>
    </g>
    <g clip-path="url(#pab4a1c3671)">
     <use xlink:href="#C0_0_5e9598a5fe" x="83.512612" y="210.236555" style="fill: #1f77b4"/>
    </g>
    <g clip-path="url(#pab4a1c3671)">
     <use xlink:href="#C0_0_5e9598a5fe" x="88.175272" y="213.593366" style="fill: #1f77b4"/>
    </g>
    <g clip-path="url(#pab4a1c3671)">
     <use xlink:href="#C0_0_5e9598a5fe" x="80.129842" y="213.593366" style="fill: #1f77b4"/>
    </g>
    <g clip-path="url(#pab4a1c3671)">
     <use xlink:href="#C0_0_5e9598a5fe" x="79.806399" y="213.593366" style="fill: #1f77b4"/>
    </g>
    <g clip-path="url(#pab4a1c3671)">
     <use xlink:href="#C0_0_5e9598a5fe" x="86.846423" y="215.271772" style="fill: #1f77b4"/>
    </g>
    <g clip-path="url(#pab4a1c3671)">
     <use xlink:href="#C0_0_5e9598a5fe" x="84.757718" y="206.879743" style="fill: #1f77b4"/>
    </g>
    <g clip-path="url(#pab4a1c3671)">
     <use xlink:href="#C0_0_5e9598a5fe" x="83.188372" y="211.91496" style="fill: #1f77b4"/>
    </g>
    <g clip-path="url(#pab4a1c3671)">
     <use xlink:href="#C0_0_5e9598a5fe" x="80.517991" y="210.236555" style="fill: #1f77b4"/>
    </g>
    <g clip-path="url(#pab4a1c3671)">
     <use xlink:href="#C0_0_5e9598a5fe" x="85.620159" y="213.593366" style="fill: #1f77b4"/>
    </g>
    <g clip-path="url(#pab4a1c3671)">
     <use xlink:href="#C0_0_5e9598a5fe" x="78.699522" y="213.593366" style="fill: #1f77b4"/>
    </g>
    <g clip-path="url(#pab4a1c3671)">
     <use xlink:href="#C0_0_5e9598a5fe" x="81.750684" y="218.628583" style="fill: #1f77b4"/>
    </g>
    <g clip-path="url(#pab4a1c3671)">
     <use xlink:href="#C0_0_5e9598a5fe" x="79.412815" y="212.754163" style="fill: #1f77b4"/>
    </g>
    <g clip-path="url(#pab4a1c3671)">
     <use xlink:href="#C0_0_5e9598a5fe" x="83.630494" y="206.879743" style="fill: #1f77b4"/>
    </g>
    <g clip-path="url(#pab4a1c3671)">
     <use xlink:href="#C0_0_5e9598a5fe" x="81.215908" y="213.593366" style="fill: #1f77b4"/>
    </g>
    <g clip-path="url(#pab4a1c3671)">
     <use xlink:href="#C0_0_5e9598a5fe" x="81.201909" y="202.683729" style="fill: #1f77b4"/>
    </g>
    <g clip-path="url(#pab4a1c3671)">
     <use xlink:href="#C0_0_5e9598a5fe" x="78.889972" y="213.593366" style="fill: #1f77b4"/>
    </g>
    <g clip-path="url(#pab4a1c3671)">
     <use xlink:href="#C0_0_5e9598a5fe" x="79.208578" y="230.377423" style="fill: #1f77b4"/>
    </g>
    <g clip-path="url(#pab4a1c3671)">
     <use xlink:href="#C0_0_5e9598a5fe" x="86.97711" y="210.236555" style="fill: #1f77b4"/>
    </g>
    <g clip-path="url(#pab4a1c3671)">
     <use xlink:href="#C0_0_5e9598a5fe" x="78.872983" y="213.593366" style="fill: #1f77b4"/>
    </g>
    <g clip-path="url(#pab4a1c3671)">
     <use xlink:href="#C0_0_5e9598a5fe" x="80.809309" y="213.593366" style="fill: #1f77b4"/>
    </g>
    <g clip-path="url(#pab4a1c3671)">
     <use xlink:href="#C0_0_5e9598a5fe" x="81.231214" y="206.879743" style="fill: #1f77b4"/>
    </g>
    <g clip-path="url(#pab4a1c3671)">
     <use xlink:href="#C0_0_5e9598a5fe" x="80.506459" y="196.809309" style="fill: #1f77b4"/>
    </g>
    <g clip-path="url(#pab4a1c3671)">
     <use xlink:href="#C0_0_5e9598a5fe" x="82.529719" y="213.593366" style="fill: #1f77b4"/>
    </g>
    <g clip-path="url(#pab4a1c3671)">
     <use xlink:href="#C0_0_5e9598a5fe" x="80.895231" y="213.593366" style="fill: #1f77b4"/>
    </g>
    <g clip-path="url(#pab4a1c3671)">
     <use xlink:href="#C0_0_5e9598a5fe" x="85.176809" y="202.683729" style="fill: #1f77b4"/>
    </g>
    <g clip-path="url(#pab4a1c3671)">
     <use xlink:href="#C0_0_5e9598a5fe" x="86.747468" y="195.130904" style="fill: #1f77b4"/>
    </g>
    <g clip-path="url(#pab4a1c3671)">
     <use xlink:href="#C0_0_5e9598a5fe" x="86.380955" y="214.432569" style="fill: #1f77b4"/>
    </g>
    <g clip-path="url(#pab4a1c3671)">
     <use xlink:href="#C0_0_5e9598a5fe" x="86.768174" y="213.593366" style="fill: #1f77b4"/>
    </g>
    <g clip-path="url(#pab4a1c3671)">
     <use xlink:href="#C0_0_5e9598a5fe" x="83.273285" y="213.593366" style="fill: #1f77b4"/>
    </g>
    <g clip-path="url(#pab4a1c3671)">
     <use xlink:href="#C0_0_5e9598a5fe" x="78.982318" y="213.593366" style="fill: #1f77b4"/>
    </g>
    <g clip-path="url(#pab4a1c3671)">
     <use xlink:href="#C0_0_5e9598a5fe" x="87.736091" y="213.593366" style="fill: #1f77b4"/>
    </g>
    <g clip-path="url(#pab4a1c3671)">
     <use xlink:href="#C0_0_5e9598a5fe" x="86.286216" y="196.809309" style="fill: #1f77b4"/>
    </g>
    <g clip-path="url(#pab4a1c3671)">
     <use xlink:href="#C0_0_5e9598a5fe" x="80.566855" y="211.91496" style="fill: #1f77b4"/>
    </g>
    <g clip-path="url(#pab4a1c3671)">
     <use xlink:href="#C0_0_5e9598a5fe" x="79.97452" y="213.593366" style="fill: #1f77b4"/>
    </g>
    <g clip-path="url(#pab4a1c3671)">
     <use xlink:href="#C0_0_5e9598a5fe" x="83.535375" y="212.754163" style="fill: #1f77b4"/>
    </g>
    <g clip-path="url(#pab4a1c3671)">
     <use xlink:href="#C0_0_5e9598a5fe" x="80.121086" y="195.130904" style="fill: #1f77b4"/>
    </g>
    <g clip-path="url(#pab4a1c3671)">
     <use xlink:href="#C0_0_5e9598a5fe" x="87.028005" y="211.91496" style="fill: #1f77b4"/>
    </g>
    <g clip-path="url(#pab4a1c3671)">
     <use xlink:href="#C0_0_5e9598a5fe" x="80.234485" y="205.201338" style="fill: #1f77b4"/>
    </g>
    <g clip-path="url(#pab4a1c3671)">
     <use xlink:href="#C0_0_5e9598a5fe" x="81.174162" y="213.593366" style="fill: #1f77b4"/>
    </g>
    <g clip-path="url(#pab4a1c3671)">
     <use xlink:href="#C0_0_5e9598a5fe" x="83.096006" y="213.593366" style="fill: #1f77b4"/>
    </g>
    <g clip-path="url(#pab4a1c3671)">
     <use xlink:href="#C0_0_5e9598a5fe" x="82.67316" y="213.593366" style="fill: #1f77b4"/>
    </g>
    <g clip-path="url(#pab4a1c3671)">
     <use xlink:href="#C0_0_5e9598a5fe" x="83.06094" y="213.593366" style="fill: #1f77b4"/>
    </g>
    <g clip-path="url(#pab4a1c3671)">
     <use xlink:href="#C0_0_5e9598a5fe" x="84.52121" y="211.075758" style="fill: #1f77b4"/>
    </g>
    <g clip-path="url(#pab4a1c3671)">
     <use xlink:href="#C0_0_5e9598a5fe" x="81.607769" y="214.432569" style="fill: #1f77b4"/>
    </g>
    <g clip-path="url(#pab4a1c3671)">
     <use xlink:href="#C0_0_5e9598a5fe" x="79.447753" y="208.558149" style="fill: #1f77b4"/>
    </g>
    <g clip-path="url(#pab4a1c3671)">
     <use xlink:href="#C0_0_5e9598a5fe" x="84.427455" y="213.593366" style="fill: #1f77b4"/>
    </g>
    <g clip-path="url(#pab4a1c3671)">
     <use xlink:href="#C0_0_5e9598a5fe" x="83.693445" y="214.432569" style="fill: #1f77b4"/>
    </g>
    <g clip-path="url(#pab4a1c3671)">
     <use xlink:href="#C0_0_5e9598a5fe" x="81.618665" y="213.593366" style="fill: #1f77b4"/>
    </g>
    <g clip-path="url(#pab4a1c3671)">
     <use xlink:href="#C0_0_5e9598a5fe" x="80.373747" y="223.6638" style="fill: #1f77b4"/>
    </g>
    <g clip-path="url(#pab4a1c3671)">
     <use xlink:href="#C0_0_5e9598a5fe" x="79.18189" y="212.754163" style="fill: #1f77b4"/>
    </g>
    <g clip-path="url(#pab4a1c3671)">
     <use xlink:href="#C0_0_5e9598a5fe" x="80.570595" y="221.985394" style="fill: #1f77b4"/>
    </g>
    <g clip-path="url(#pab4a1c3671)">
     <use xlink:href="#C0_0_5e9598a5fe" x="83.143375" y="207.718946" style="fill: #1f77b4"/>
    </g>
    <g clip-path="url(#pab4a1c3671)">
     <use xlink:href="#C0_0_5e9598a5fe" x="85.7863" y="221.985394" style="fill: #1f77b4"/>
    </g>
    <g clip-path="url(#pab4a1c3671)">
     <use xlink:href="#C0_0_5e9598a5fe" x="86.473089" y="206.879743" style="fill: #1f77b4"/>
    </g>
    <g clip-path="url(#pab4a1c3671)">
     <use xlink:href="#C0_0_5e9598a5fe" x="86.699036" y="213.593366" style="fill: #1f77b4"/>
    </g>
    <g clip-path="url(#pab4a1c3671)">
     <use xlink:href="#C0_0_5e9598a5fe" x="78.966156" y="214.432569" style="fill: #1f77b4"/>
    </g>
    <g clip-path="url(#pab4a1c3671)">
     <use xlink:href="#C0_0_5e9598a5fe" x="84.250424" y="213.593366" style="fill: #1f77b4"/>
    </g>
    <g clip-path="url(#pab4a1c3671)">
     <use xlink:href="#C0_0_5e9598a5fe" x="80.118747" y="213.593366" style="fill: #1f77b4"/>
    </g>
    <g clip-path="url(#pab4a1c3671)">
     <use xlink:href="#C0_0_5e9598a5fe" x="87.189113" y="212.754163" style="fill: #1f77b4"/>
    </g>
    <g clip-path="url(#pab4a1c3671)">
     <use xlink:href="#C0_0_5e9598a5fe" x="86.497372" y="200.166121" style="fill: #1f77b4"/>
    </g>
    <g clip-path="url(#pab4a1c3671)">
     <use xlink:href="#C0_0_5e9598a5fe" x="79.831464" y="213.593366" style="fill: #1f77b4"/>
    </g>
    <g clip-path="url(#pab4a1c3671)">
     <use xlink:href="#C0_0_5e9598a5fe" x="84.946547" y="203.522932" style="fill: #1f77b4"/>
    </g>
    <g clip-path="url(#pab4a1c3671)">
     <use xlink:href="#C0_0_5e9598a5fe" x="85.537542" y="203.522932" style="fill: #1f77b4"/>
    </g>
    <g clip-path="url(#pab4a1c3671)">
     <use xlink:href="#C0_0_5e9598a5fe" x="84.41397" y="213.593366" style="fill: #1f77b4"/>
    </g>
    <g clip-path="url(#pab4a1c3671)">
     <use xlink:href="#C0_0_5e9598a5fe" x="83.723681" y="213.593366" style="fill: #1f77b4"/>
    </g>
    <g clip-path="url(#pab4a1c3671)">
     <use xlink:href="#C0_0_5e9598a5fe" x="82.502199" y="213.593366" style="fill: #1f77b4"/>
    </g>
    <g clip-path="url(#pab4a1c3671)">
     <use xlink:href="#C0_0_5e9598a5fe" x="81.080816" y="185.899672" style="fill: #1f77b4"/>
    </g>
    <g clip-path="url(#pab4a1c3671)">
     <use xlink:href="#C0_0_5e9598a5fe" x="83.12316" y="213.593366" style="fill: #1f77b4"/>
    </g>
    <g clip-path="url(#pab4a1c3671)">
     <use xlink:href="#C0_0_5e9598a5fe" x="87.092554" y="216.950177" style="fill: #1f77b4"/>
    </g>
    <g clip-path="url(#pab4a1c3671)">
     <use xlink:href="#C0_0_5e9598a5fe" x="79.770727" y="214.432569" style="fill: #1f77b4"/>
    </g>
    <g clip-path="url(#pab4a1c3671)">
     <use xlink:href="#C0_0_5e9598a5fe" x="82.646527" y="199.326918" style="fill: #1f77b4"/>
    </g>
    <g clip-path="url(#pab4a1c3671)">
     <use xlink:href="#C0_0_5e9598a5fe" x="83.741437" y="213.593366" style="fill: #1f77b4"/>
    </g>
    <g clip-path="url(#pab4a1c3671)">
     <use xlink:href="#C0_0_5e9598a5fe" x="79.453989" y="208.558149" style="fill: #1f77b4"/>
    </g>
    <g clip-path="url(#pab4a1c3671)">
     <use xlink:href="#C0_0_5e9598a5fe" x="81.516844" y="212.754163" style="fill: #1f77b4"/>
    </g>
    <g clip-path="url(#pab4a1c3671)">
     <use xlink:href="#C0_0_5e9598a5fe" x="87.06482" y="212.754163" style="fill: #1f77b4"/>
    </g>
    <g clip-path="url(#pab4a1c3671)">
     <use xlink:href="#C0_0_5e9598a5fe" x="87.817666" y="214.432569" style="fill: #1f77b4"/>
    </g>
    <g clip-path="url(#pab4a1c3671)">
     <use xlink:href="#C0_0_5e9598a5fe" x="83.480156" y="213.593366" style="fill: #1f77b4"/>
    </g>
    <g clip-path="url(#pab4a1c3671)">
     <use xlink:href="#C0_0_5e9598a5fe" x="83.881974" y="204.362135" style="fill: #1f77b4"/>
    </g>
    <g clip-path="url(#pab4a1c3671)">
     <use xlink:href="#C0_0_5e9598a5fe" x="83.856285" y="213.593366" style="fill: #1f77b4"/>
    </g>
    <g clip-path="url(#pab4a1c3671)">
     <use xlink:href="#C0_0_5e9598a5fe" x="87.8439" y="213.593366" style="fill: #1f77b4"/>
    </g>
    <g clip-path="url(#pab4a1c3671)">
     <use xlink:href="#C0_0_5e9598a5fe" x="80.783604" y="212.754163" style="fill: #1f77b4"/>
    </g>
    <g clip-path="url(#pab4a1c3671)">
     <use xlink:href="#C0_0_5e9598a5fe" x="81.296007" y="214.432569" style="fill: #1f77b4"/>
    </g>
    <g clip-path="url(#pab4a1c3671)">
     <use xlink:href="#C0_0_5e9598a5fe" x="81.883476" y="186.738875" style="fill: #1f77b4"/>
    </g>
    <g clip-path="url(#pab4a1c3671)">
     <use xlink:href="#C0_0_5e9598a5fe" x="85.350502" y="213.593366" style="fill: #1f77b4"/>
    </g>
    <g clip-path="url(#pab4a1c3671)">
     <use xlink:href="#C0_0_5e9598a5fe" x="82.5926" y="211.91496" style="fill: #1f77b4"/>
    </g>
    <g clip-path="url(#pab4a1c3671)">
     <use xlink:href="#C0_0_5e9598a5fe" x="83.446292" y="213.593366" style="fill: #1f77b4"/>
    </g>
    <g clip-path="url(#pab4a1c3671)">
     <use xlink:href="#C0_0_5e9598a5fe" x="80.820223" y="213.593366" style="fill: #1f77b4"/>
    </g>
    <g clip-path="url(#pab4a1c3671)">
     <use xlink:href="#C0_0_5e9598a5fe" x="80.017074" y="192.613295" style="fill: #1f77b4"/>
    </g>
    <g clip-path="url(#pab4a1c3671)">
     <use xlink:href="#C0_0_5e9598a5fe" x="79.672074" y="213.593366" style="fill: #1f77b4"/>
    </g>
    <g clip-path="url(#pab4a1c3671)">
     <use xlink:href="#C0_0_5e9598a5fe" x="82.27739" y="213.593366" style="fill: #1f77b4"/>
    </g>
    <g clip-path="url(#pab4a1c3671)">
     <use xlink:href="#C0_0_5e9598a5fe" x="82.997989" y="213.593366" style="fill: #1f77b4"/>
    </g>
    <g clip-path="url(#pab4a1c3671)">
     <use xlink:href="#C0_0_5e9598a5fe" x="81.852205" y="213.593366" style="fill: #1f77b4"/>
    </g>
    <g clip-path="url(#pab4a1c3671)">
     <use xlink:href="#C0_0_5e9598a5fe" x="87.861218" y="209.397352" style="fill: #1f77b4"/>
    </g>
    <g clip-path="url(#pab4a1c3671)">
     <use xlink:href="#C0_0_5e9598a5fe" x="80.711797" y="213.593366" style="fill: #1f77b4"/>
    </g>
    <g clip-path="url(#pab4a1c3671)">
     <use xlink:href="#C0_0_5e9598a5fe" x="87.154314" y="213.593366" style="fill: #1f77b4"/>
    </g>
    <g clip-path="url(#pab4a1c3671)">
     <use xlink:href="#C0_0_5e9598a5fe" x="79.290939" y="213.593366" style="fill: #1f77b4"/>
    </g>
    <g clip-path="url(#pab4a1c3671)">
     <use xlink:href="#C0_0_5e9598a5fe" x="85.697724" y="213.593366" style="fill: #1f77b4"/>
    </g>
    <g clip-path="url(#pab4a1c3671)">
     <use xlink:href="#C0_0_5e9598a5fe" x="81.406048" y="213.593366" style="fill: #1f77b4"/>
    </g>
    <g clip-path="url(#pab4a1c3671)">
     <use xlink:href="#C0_0_5e9598a5fe" x="83.756782" y="212.754163" style="fill: #1f77b4"/>
    </g>
    <g clip-path="url(#pab4a1c3671)">
     <use xlink:href="#C0_0_5e9598a5fe" x="84.062223" y="213.593366" style="fill: #1f77b4"/>
    </g>
    <g clip-path="url(#pab4a1c3671)">
     <use xlink:href="#C0_0_5e9598a5fe" x="84.101142" y="211.91496" style="fill: #1f77b4"/>
    </g>
    <g clip-path="url(#pab4a1c3671)">
     <use xlink:href="#C0_0_5e9598a5fe" x="78.666383" y="212.754163" style="fill: #1f77b4"/>
    </g>
    <g clip-path="url(#pab4a1c3671)">
     <use xlink:href="#C0_0_5e9598a5fe" x="83.734141" y="213.593366" style="fill: #1f77b4"/>
    </g>
    <g clip-path="url(#pab4a1c3671)">
     <use xlink:href="#C0_0_5e9598a5fe" x="82.886305" y="213.593366" style="fill: #1f77b4"/>
    </g>
    <g clip-path="url(#pab4a1c3671)">
     <use xlink:href="#C0_0_5e9598a5fe" x="88.056644" y="191.774092" style="fill: #1f77b4"/>
    </g>
    <g clip-path="url(#pab4a1c3671)">
     <use xlink:href="#C0_0_5e9598a5fe" x="84.864195" y="204.362135" style="fill: #1f77b4"/>
    </g>
    <g clip-path="url(#pab4a1c3671)">
     <use xlink:href="#C0_0_5e9598a5fe" x="84.023672" y="213.593366" style="fill: #1f77b4"/>
    </g>
    <g clip-path="url(#pab4a1c3671)">
     <use xlink:href="#C0_0_5e9598a5fe" x="80.193835" y="214.432569" style="fill: #1f77b4"/>
    </g>
    <g clip-path="url(#pab4a1c3671)">
     <use xlink:href="#C0_0_5e9598a5fe" x="83.913845" y="209.397352" style="fill: #1f77b4"/>
    </g>
    <g clip-path="url(#pab4a1c3671)">
     <use xlink:href="#C0_0_5e9598a5fe" x="82.138761" y="215.271772" style="fill: #1f77b4"/>
    </g>
    <g clip-path="url(#pab4a1c3671)">
     <use xlink:href="#C0_0_5e9598a5fe" x="86.698043" y="187.578078" style="fill: #1f77b4"/>
    </g>
    <g clip-path="url(#pab4a1c3671)">
     <use xlink:href="#C0_0_5e9598a5fe" x="86.373618" y="213.593366" style="fill: #1f77b4"/>
    </g>
    <g clip-path="url(#pab4a1c3671)">
     <use xlink:href="#C0_0_5e9598a5fe" x="87.610411" y="213.593366" style="fill: #1f77b4"/>
    </g>
    <g clip-path="url(#pab4a1c3671)">
     <use xlink:href="#C0_0_5e9598a5fe" x="86.63637" y="213.593366" style="fill: #1f77b4"/>
    </g>
    <g clip-path="url(#pab4a1c3671)">
     <use xlink:href="#C0_0_5e9598a5fe" x="78.873689" y="211.075758" style="fill: #1f77b4"/>
    </g>
    <g clip-path="url(#pab4a1c3671)">
     <use xlink:href="#C0_0_5e9598a5fe" x="80.152237" y="207.718946" style="fill: #1f77b4"/>
    </g>
    <g clip-path="url(#pab4a1c3671)">
     <use xlink:href="#C0_0_5e9598a5fe" x="87.136234" y="212.754163" style="fill: #1f77b4"/>
    </g>
    <g clip-path="url(#pab4a1c3671)">
     <use xlink:href="#C0_0_5e9598a5fe" x="83.243235" y="206.879743" style="fill: #1f77b4"/>
    </g>
    <g clip-path="url(#pab4a1c3671)">
     <use xlink:href="#C0_0_5e9598a5fe" x="79.857891" y="201.005324" style="fill: #1f77b4"/>
    </g>
    <g clip-path="url(#pab4a1c3671)">
     <use xlink:href="#C0_0_5e9598a5fe" x="82.050122" y="211.91496" style="fill: #1f77b4"/>
    </g>
    <g clip-path="url(#pab4a1c3671)">
     <use xlink:href="#C0_0_5e9598a5fe" x="82.440856" y="213.593366" style="fill: #1f77b4"/>
    </g>
    <g clip-path="url(#pab4a1c3671)">
     <use xlink:href="#C0_0_5e9598a5fe" x="87.110873" y="212.754163" style="fill: #1f77b4"/>
    </g>
    <g clip-path="url(#pab4a1c3671)">
     <use xlink:href="#C0_0_5e9598a5fe" x="86.866131" y="214.432569" style="fill: #1f77b4"/>
    </g>
    <g clip-path="url(#pab4a1c3671)">
     <use xlink:href="#C0_0_5e9598a5fe" x="81.498315" y="213.593366" style="fill: #1f77b4"/>
    </g>
    <g clip-path="url(#pab4a1c3671)">
     <use xlink:href="#C0_0_5e9598a5fe" x="78.941006" y="213.593366" style="fill: #1f77b4"/>
    </g>
    <g clip-path="url(#pab4a1c3671)">
     <use xlink:href="#C0_0_5e9598a5fe" x="80.403169" y="213.593366" style="fill: #1f77b4"/>
    </g>
    <g clip-path="url(#pab4a1c3671)">
     <use xlink:href="#C0_0_5e9598a5fe" x="83.942034" y="235.41264" style="fill: #1f77b4"/>
    </g>
    <g clip-path="url(#pab4a1c3671)">
     <use xlink:href="#C0_0_5e9598a5fe" x="85.963418" y="214.432569" style="fill: #1f77b4"/>
    </g>
    <g clip-path="url(#pab4a1c3671)">
     <use xlink:href="#C0_0_5e9598a5fe" x="86.987834" y="213.593366" style="fill: #1f77b4"/>
    </g>
    <g clip-path="url(#pab4a1c3671)">
     <use xlink:href="#C0_0_5e9598a5fe" x="84.927316" y="211.075758" style="fill: #1f77b4"/>
    </g>
   </g>
   <g id="PathCollection_2">
    <defs>
     <path id="C1_0_17c2a6504f" d="M 0 4 
C 1.060812 4 2.078319 3.578535 2.828427 2.828427 
C 3.578535 2.078319 4 1.060812 4 -0 
C 4 -1.060812 3.578535 -2.078319 2.828427 -2.828427 
C 2.078319 -3.578535 1.060812 -4 0 -4 
C -1.060812 -4 -2.078319 -3.578535 -2.828427 -2.828427 
C -3.578535 -2.078319 -4 -1.060812 -4 0 
C -4 1.060812 -3.578535 2.078319 -2.828427 2.828427 
C -2.078319 3.578535 -1.060812 4 0 4 
z
"/>
    </defs>
    <g clip-path="url(#pab4a1c3671)">
     <use xlink:href="#C1_0_17c2a6504f" x="134.735808" y="154.009965" style="fill: #ff7f0e"/>
    </g>
    <g clip-path="url(#pab4a1c3671)">
     <use xlink:href="#C1_0_17c2a6504f" x="131.473243" y="127.155474" style="fill: #ff7f0e"/>
    </g>
    <g clip-path="url(#pab4a1c3671)">
     <use xlink:href="#C1_0_17c2a6504f" x="127.783669" y="157.366776" style="fill: #ff7f0e"/>
    </g>
    <g clip-path="url(#pab4a1c3671)">
     <use xlink:href="#C1_0_17c2a6504f" x="131.24014" y="146.457139" style="fill: #ff7f0e"/>
    </g>
    <g clip-path="url(#pab4a1c3671)">
     <use xlink:href="#C1_0_17c2a6504f" x="134.610624" y="114.567431" style="fill: #ff7f0e"/>
    </g>
    <g clip-path="url(#pab4a1c3671)">
     <use xlink:href="#C1_0_17c2a6504f" x="131.501988" y="151.492356" style="fill: #ff7f0e"/>
    </g>
    <g clip-path="url(#pab4a1c3671)">
     <use xlink:href="#C1_0_17c2a6504f" x="129.742261" y="166.598007" style="fill: #ff7f0e"/>
    </g>
    <g clip-path="url(#pab4a1c3671)">
     <use xlink:href="#C1_0_17c2a6504f" x="131.340945" y="106.175403" style="fill: #ff7f0e"/>
    </g>
    <g clip-path="url(#pab4a1c3671)">
     <use xlink:href="#C1_0_17c2a6504f" x="133.269603" y="151.492356" style="fill: #ff7f0e"/>
    </g>
    <g clip-path="url(#pab4a1c3671)">
     <use xlink:href="#C1_0_17c2a6504f" x="131.973377" y="139.743516" style="fill: #ff7f0e"/>
    </g>
    <g clip-path="url(#pab4a1c3671)">
     <use xlink:href="#C1_0_17c2a6504f" x="136.046914" y="117.08504" style="fill: #ff7f0e"/>
    </g>
    <g clip-path="url(#pab4a1c3671)">
     <use xlink:href="#C1_0_17c2a6504f" x="133.719448" y="136.386705" style="fill: #ff7f0e"/>
    </g>
    <g clip-path="url(#pab4a1c3671)">
     <use xlink:href="#C1_0_17c2a6504f" x="129.350259" y="172.472427" style="fill: #ff7f0e"/>
    </g>
   </g>
   <g id="PathCollection_3">
    <defs>
     <path id="C2_0_06e7071aa2" d="M 0 4 
C 1.060812 4 2.078319 3.578535 2.828427 2.828427 
C 3.578535 2.078319 4 1.060812 4 -0 
C 4 -1.060812 3.578535 -2.078319 2.828427 -2.828427 
C 2.078319 -3.578535 1.060812 -4 0 -4 
C -1.060812 -4 -2.078319 -3.578535 -2.828427 -2.828427 
C -3.578535 -2.078319 -4 -1.060812 -4 0 
C -4 1.060812 -3.578535 2.078319 -2.828427 2.828427 
C -2.078319 3.578535 -1.060812 4 0 4 
z
"/>
    </defs>
    <g clip-path="url(#pab4a1c3671)">
     <use xlink:href="#C2_0_06e7071aa2" x="180.859441" y="213.593366" style="fill: #2ca02c"/>
    </g>
    <g clip-path="url(#pab4a1c3671)">
     <use xlink:href="#C2_0_06e7071aa2" x="176.468544" y="237.930248" style="fill: #2ca02c"/>
    </g>
    <g clip-path="url(#pab4a1c3671)">
     <use xlink:href="#C2_0_06e7071aa2" x="178.041502" y="223.6638" style="fill: #2ca02c"/>
    </g>
    <g clip-path="url(#pab4a1c3671)">
     <use xlink:href="#C2_0_06e7071aa2" x="179.016217" y="218.628583" style="fill: #2ca02c"/>
    </g>
    <g clip-path="url(#pab4a1c3671)">
     <use xlink:href="#C2_0_06e7071aa2" x="176.902848" y="213.593366" style="fill: #2ca02c"/>
    </g>
   </g>
   <g id="PathCollection_4">
    <defs>
     <path id="C3_0_0104db05ce" d="M 0 4 
C 1.060812 4 2.078319 3.578535 2.828427 2.828427 
C 3.578535 2.078319 4 1.060812 4 -0 
C 4 -1.060812 3.578535 -2.078319 2.828427 -2.828427 
C 2.078319 -3.578535 1.060812 -4 0 -4 
C -1.060812 -4 -2.078319 -3.578535 -2.828427 -2.828427 
C -3.578535 -2.078319 -4 -1.060812 -4 0 
C -4 1.060812 -3.578535 2.078319 -2.828427 2.828427 
C -2.078319 3.578535 -1.060812 4 0 4 
z
"/>
    </defs>
    <g clip-path="url(#pab4a1c3671)">
     <use xlink:href="#C3_0_0104db05ce" x="225.583261" y="304.227273" style="fill: #d62728"/>
    </g>
    <g clip-path="url(#pab4a1c3671)">
     <use xlink:href="#C3_0_0104db05ce" x="228.860758" y="285.76481" style="fill: #d62728"/>
    </g>
    <g clip-path="url(#pab4a1c3671)">
     <use xlink:href="#C3_0_0104db05ce" x="231.713957" y="282.407999" style="fill: #d62728"/>
    </g>
   </g>
   <g id="PathCollection_5">
    <defs>
     <path id="C4_0_79dfe6d6b9" d="M 0 4 
C 1.060812 4 2.078319 3.578535 2.828427 2.828427 
C 3.578535 2.078319 4 1.060812 4 -0 
C 4 -1.060812 3.578535 -2.078319 2.828427 -2.828427 
C 2.078319 -3.578535 1.060812 -4 0 -4 
C -1.060812 -4 -2.078319 -3.578535 -2.828427 -2.828427 
C -3.578535 -2.078319 -4 -1.060812 -4 0 
C -4 1.060812 -3.578535 2.078319 -2.828427 2.828427 
C -2.078319 3.578535 -1.060812 4 0 4 
z
"/>
    </defs>
    <g clip-path="url(#pab4a1c3671)">
     <use xlink:href="#C4_0_79dfe6d6b9" x="272.981374" y="60.019247" style="fill: #9467bd"/>
    </g>
    <g clip-path="url(#pab4a1c3671)">
     <use xlink:href="#C4_0_79dfe6d6b9" x="281.395878" y="24.772727" style="fill: #9467bd"/>
    </g>
   </g>
   <g id="PathCollection_6">
    <defs>
     <path id="C5_0_733f86a6ec" d="M 0 4 
C 1.060812 4 2.078319 3.578535 2.828427 2.828427 
C 3.578535 2.078319 4 1.060812 4 -0 
C 4 -1.060812 3.578535 -2.078319 2.828427 -2.828427 
C 2.078319 -3.578535 1.060812 -4 0 -4 
C -1.060812 -4 -2.078319 -3.578535 -2.828427 -2.828427 
C -3.578535 -2.078319 -4 -1.060812 -4 0 
C -4 1.060812 -3.578535 2.078319 -2.828427 2.828427 
C -2.078319 3.578535 -1.060812 4 0 4 
z
"/>
    </defs>
    <g clip-path="url(#pab4a1c3671)">
     <use xlink:href="#C5_0_733f86a6ec" x="329.04427" y="213.593366" style="fill: #8c564b"/>
    </g>
    <g clip-path="url(#pab4a1c3671)">
     <use xlink:href="#C5_0_733f86a6ec" x="324.807877" y="211.075758" style="fill: #8c564b"/>
    </g>
    <g clip-path="url(#pab4a1c3671)">
     <use xlink:href="#C5_0_733f86a6ec" x="324.102996" y="216.950177" style="fill: #8c564b"/>
    </g>
    <g clip-path="url(#pab4a1c3671)">
     <use xlink:href="#C5_0_733f86a6ec" x="320.699395" y="204.362135" style="fill: #8c564b"/>
    </g>
    <g clip-path="url(#pab4a1c3671)">
     <use xlink:href="#C5_0_733f86a6ec" x="328.84285" y="231.216626" style="fill: #8c564b"/>
    </g>
    <g clip-path="url(#pab4a1c3671)">
     <use xlink:href="#C5_0_733f86a6ec" x="325.374536" y="214.432569" style="fill: #8c564b"/>
    </g>
    <g clip-path="url(#pab4a1c3671)">
     <use xlink:href="#C5_0_733f86a6ec" x="321.185737" y="216.110975" style="fill: #8c564b"/>
    </g>
    <g clip-path="url(#pab4a1c3671)">
     <use xlink:href="#C5_0_733f86a6ec" x="328.760384" y="216.110975" style="fill: #8c564b"/>
    </g>
    <g clip-path="url(#pab4a1c3671)">
     <use xlink:href="#C5_0_733f86a6ec" x="326.858181" y="213.593366" style="fill: #8c564b"/>
    </g>
    <g clip-path="url(#pab4a1c3671)">
     <use xlink:href="#C5_0_733f86a6ec" x="325.778282" y="212.754163" style="fill: #8c564b"/>
    </g>
    <g clip-path="url(#pab4a1c3671)">
     <use xlink:href="#C5_0_733f86a6ec" x="322.021903" y="211.91496" style="fill: #8c564b"/>
    </g>
    <g clip-path="url(#pab4a1c3671)">
     <use xlink:href="#C5_0_733f86a6ec" x="325.750728" y="232.895031" style="fill: #8c564b"/>
    </g>
   </g>
  </g>
 </g>
 <defs>
  <clipPath id="pab4a1c3671">
   <rect x="59.3" y="10.8" width="289.9" height="307.4"/>
  </clipPath>
 </defs>
</svg>
