<?xml version="1.0" encoding="utf-8" standalone="no"?>
<!DOCTYPE svg PUBLIC "-//W3C//DTD SVG 1.1//EN"
  "http://www.w3.org/Graphics/SVG/1.1/DTD/svg11.dtd">
<svg xmlns:xlink="http://www.w3.org/1999/xlink" width="360pt" height="360pt" viewBox="0 0 360 360" xmlns="http://www.w3.org/2000/svg" version="1.1">
 <metadata>
  <rdf:RDF xmlns:dc="http://purl.org/dc/elements/1.1/" xmlns:cc="http://creativecommons.org/ns#" xmlns:rdf="http://www.w3.org/1999/02/22-rdf-syntax-ns#">
   <cc:Work>
    <dc:type rdf:resource="http://purl.org/dc/dcmitype/StillImage"/>
    <dc:date>2023-04-13T20:56:35.816672</dc:date>
    <dc:format>image/svg+xml</dc:format>
    <dc:creator>
     <cc:Agent>
      <dc:title>Matplotlib v3.5.1, https://matplotlib.org/</dc:title>
     </cc:Agent>
    </dc:creator>
   </cc:Work>
  </rdf:RDF>
 </metadata>
 <defs>
  <style type="text/css">*{stroke-linejoin: round; stroke-linecap: butt}</style>
 </defs>
 <g id="figure_1">
  <g id="patch_1">
   <path d="M 0 360 
L 360 360 
L 360 0 
L 0 0 
L 0 360 
z
" style="fill: none"/>
  </g>
  <g id="axes_1">
   <g id="patch_2">
    <path d="M 57.8 318.2 
L 349.2 318.2 
L 349.2 10.8 
L 57.8 10.8 
z
" style="fill: #ffffff"/>
   </g>
   <g id="matplotlib.axis_1">
    <g id="xtick_1">
     <g id="line2d_1">
      <defs>
       <path id="meea568698d" d="M 0 0 
L 0 3.5 
" style="stroke: #000000; stroke-width: 0.8"/>
      </defs>
      <g>
       <use xlink:href="#meea568698d" x="82.083333" y="318.2" style="stroke: #000000; stroke-width: 0.8"/>
      </g>
     </g>
     <g id="text_1">
      <!-- 0 -->
      <g transform="translate(78.902083 332.798437)scale(0.1 -0.1)">
       <defs>
        <path id="DejaVuSans-30" d="M 2034 4250 
Q 1547 4250 1301 3770 
Q 1056 3291 1056 2328 
Q 1056 1369 1301 889 
Q 1547 409 2034 409 
Q 2525 409 2770 889 
Q 3016 1369 3016 2328 
Q 3016 3291 2770 3770 
Q 2525 4250 2034 4250 
z
M 2034 4750 
Q 2819 4750 3233 4129 
Q 3647 3509 3647 2328 
Q 3647 1150 3233 529 
Q 2819 -91 2034 -91 
Q 1250 -91 836 529 
Q 422 1150 422 2328 
Q 422 3509 836 4129 
Q 1250 4750 2034 4750 
z
" transform="scale(0.015625)"/>
       </defs>
       <use xlink:href="#DejaVuSans-30"/>
      </g>
     </g>
    </g>
    <g id="xtick_2">
     <g id="line2d_2">
      <g>
       <use xlink:href="#meea568698d" x="130.65" y="318.2" style="stroke: #000000; stroke-width: 0.8"/>
      </g>
     </g>
     <g id="text_2">
      <!-- 1 -->
      <g transform="translate(127.46875 332.798437)scale(0.1 -0.1)">
       <defs>
        <path id="DejaVuSans-31" d="M 794 531 
L 1825 531 
L 1825 4091 
L 703 3866 
L 703 4441 
L 1819 4666 
L 2450 4666 
L 2450 531 
L 3481 531 
L 3481 0 
L 794 0 
L 794 531 
z
" transform="scale(0.015625)"/>
       </defs>
       <use xlink:href="#DejaVuSans-31"/>
      </g>
     </g>
    </g>
    <g id="xtick_3">
     <g id="line2d_3">
      <g>
       <use xlink:href="#meea568698d" x="179.216667" y="318.2" style="stroke: #000000; stroke-width: 0.8"/>
      </g>
     </g>
     <g id="text_3">
      <!-- 2 -->
      <g transform="translate(176.035417 332.798437)scale(0.1 -0.1)">
       <defs>
        <path id="DejaVuSans-32" d="M 1228 531 
L 3431 531 
L 3431 0 
L 469 0 
L 469 531 
Q 828 903 1448 1529 
Q 2069 2156 2228 2338 
Q 2531 2678 2651 2914 
Q 2772 3150 2772 3378 
Q 2772 3750 2511 3984 
Q 2250 4219 1831 4219 
Q 1534 4219 1204 4116 
Q 875 4013 500 3803 
L 500 4441 
Q 881 4594 1212 4672 
Q 1544 4750 1819 4750 
Q 2544 4750 2975 4387 
Q 3406 4025 3406 3419 
Q 3406 3131 3298 2873 
Q 3191 2616 2906 2266 
Q 2828 2175 2409 1742 
Q 1991 1309 1228 531 
z
" transform="scale(0.015625)"/>
       </defs>
       <use xlink:href="#DejaVuSans-32"/>
      </g>
     </g>
    </g>
    <g id="xtick_4">
     <g id="line2d_4">
      <g>
       <use xlink:href="#meea568698d" x="227.783333" y="318.2" style="stroke: #000000; stroke-width: 0.8"/>
      </g>
     </g>
     <g id="text_4">
      <!-- 3 -->
      <g transform="translate(224.602083 332.798437)scale(0.1 -0.1)">
       <defs>
        <path id="DejaVuSans-33" d="M 2597 2516 
Q 3050 2419 3304 2112 
Q 3559 1806 3559 1356 
Q 3559 666 3084 287 
Q 2609 -91 1734 -91 
Q 1441 -91 1130 -33 
Q 819 25 488 141 
L 488 750 
Q 750 597 1062 519 
Q 1375 441 1716 441 
Q 2309 441 2620 675 
Q 2931 909 2931 1356 
Q 2931 1769 2642 2001 
Q 2353 2234 1838 2234 
L 1294 2234 
L 1294 2753 
L 1863 2753 
Q 2328 2753 2575 2939 
Q 2822 3125 2822 3475 
Q 2822 3834 2567 4026 
Q 2313 4219 1838 4219 
Q 1578 4219 1281 4162 
Q 984 4106 628 3988 
L 628 4550 
Q 988 4650 1302 4700 
Q 1616 4750 1894 4750 
Q 2613 4750 3031 4423 
Q 3450 4097 3450 3541 
Q 3450 3153 3228 2886 
Q 3006 2619 2597 2516 
z
" transform="scale(0.015625)"/>
       </defs>
       <use xlink:href="#DejaVuSans-33"/>
      </g>
     </g>
    </g>
    <g id="xtick_5">
     <g id="line2d_5">
      <g>
       <use xlink:href="#meea568698d" x="276.35" y="318.2" style="stroke: #000000; stroke-width: 0.8"/>
      </g>
     </g>
     <g id="text_5">
      <!-- 4 -->
      <g transform="translate(273.16875 332.798437)scale(0.1 -0.1)">
       <defs>
        <path id="DejaVuSans-34" d="M 2419 4116 
L 825 1625 
L 2419 1625 
L 2419 4116 
z
M 2253 4666 
L 3047 4666 
L 3047 1625 
L 3713 1625 
L 3713 1100 
L 3047 1100 
L 3047 0 
L 2419 0 
L 2419 1100 
L 313 1100 
L 313 1709 
L 2253 4666 
z
" transform="scale(0.015625)"/>
       </defs>
       <use xlink:href="#DejaVuSans-34"/>
      </g>
     </g>
    </g>
    <g id="xtick_6">
     <g id="line2d_6">
      <g>
       <use xlink:href="#meea568698d" x="324.916667" y="318.2" style="stroke: #000000; stroke-width: 0.8"/>
      </g>
     </g>
     <g id="text_6">
      <!-- 5 -->
      <g transform="translate(321.735417 332.798437)scale(0.1 -0.1)">
       <defs>
        <path id="DejaVuSans-35" d="M 691 4666 
L 3169 4666 
L 3169 4134 
L 1269 4134 
L 1269 2991 
Q 1406 3038 1543 3061 
Q 1681 3084 1819 3084 
Q 2600 3084 3056 2656 
Q 3513 2228 3513 1497 
Q 3513 744 3044 326 
Q 2575 -91 1722 -91 
Q 1428 -91 1123 -41 
Q 819 9 494 109 
L 494 744 
Q 775 591 1075 516 
Q 1375 441 1709 441 
Q 2250 441 2565 725 
Q 2881 1009 2881 1497 
Q 2881 1984 2565 2268 
Q 2250 2553 1709 2553 
Q 1456 2553 1204 2497 
Q 953 2441 691 2322 
L 691 4666 
z
" transform="scale(0.015625)"/>
       </defs>
       <use xlink:href="#DejaVuSans-35"/>
      </g>
     </g>
    </g>
    <g id="text_7">
     <!-- cluster -->
     <g transform="translate(186.496094 346.476562)scale(0.1 -0.1)">
      <defs>
       <path id="DejaVuSans-63" d="M 3122 3366 
L 3122 2828 
Q 2878 2963 2633 3030 
Q 2388 3097 2138 3097 
Q 1578 3097 1268 2742 
Q 959 2388 959 1747 
Q 959 1106 1268 751 
Q 1578 397 2138 397 
Q 2388 397 2633 464 
Q 2878 531 3122 666 
L 3122 134 
Q 2881 22 2623 -34 
Q 2366 -91 2075 -91 
Q 1284 -91 818 406 
Q 353 903 353 1747 
Q 353 2603 823 3093 
Q 1294 3584 2113 3584 
Q 2378 3584 2631 3529 
Q 2884 3475 3122 3366 
z
" transform="scale(0.015625)"/>
       <path id="DejaVuSans-6c" d="M 603 4863 
L 1178 4863 
L 1178 0 
L 603 0 
L 603 4863 
z
" transform="scale(0.015625)"/>
       <path id="DejaVuSans-75" d="M 544 1381 
L 544 3500 
L 1119 3500 
L 1119 1403 
Q 1119 906 1312 657 
Q 1506 409 1894 409 
Q 2359 409 2629 706 
Q 2900 1003 2900 1516 
L 2900 3500 
L 3475 3500 
L 3475 0 
L 2900 0 
L 2900 538 
Q 2691 219 2414 64 
Q 2138 -91 1772 -91 
Q 1169 -91 856 284 
Q 544 659 544 1381 
z
M 1991 3584 
L 1991 3584 
z
" transform="scale(0.015625)"/>
       <path id="DejaVuSans-73" d="M 2834 3397 
L 2834 2853 
Q 2591 2978 2328 3040 
Q 2066 3103 1784 3103 
Q 1356 3103 1142 2972 
Q 928 2841 928 2578 
Q 928 2378 1081 2264 
Q 1234 2150 1697 2047 
L 1894 2003 
Q 2506 1872 2764 1633 
Q 3022 1394 3022 966 
Q 3022 478 2636 193 
Q 2250 -91 1575 -91 
Q 1294 -91 989 -36 
Q 684 19 347 128 
L 347 722 
Q 666 556 975 473 
Q 1284 391 1588 391 
Q 1994 391 2212 530 
Q 2431 669 2431 922 
Q 2431 1156 2273 1281 
Q 2116 1406 1581 1522 
L 1381 1569 
Q 847 1681 609 1914 
Q 372 2147 372 2553 
Q 372 3047 722 3315 
Q 1072 3584 1716 3584 
Q 2034 3584 2315 3537 
Q 2597 3491 2834 3397 
z
" transform="scale(0.015625)"/>
       <path id="DejaVuSans-74" d="M 1172 4494 
L 1172 3500 
L 2356 3500 
L 2356 3053 
L 1172 3053 
L 1172 1153 
Q 1172 725 1289 603 
Q 1406 481 1766 481 
L 2356 481 
L 2356 0 
L 1766 0 
Q 1100 0 847 248 
Q 594 497 594 1153 
L 594 3053 
L 172 3053 
L 172 3500 
L 594 3500 
L 594 4494 
L 1172 4494 
z
" transform="scale(0.015625)"/>
       <path id="DejaVuSans-65" d="M 3597 1894 
L 3597 1613 
L 953 1613 
Q 991 1019 1311 708 
Q 1631 397 2203 397 
Q 2534 397 2845 478 
Q 3156 559 3463 722 
L 3463 178 
Q 3153 47 2828 -22 
Q 2503 -91 2169 -91 
Q 1331 -91 842 396 
Q 353 884 353 1716 
Q 353 2575 817 3079 
Q 1281 3584 2069 3584 
Q 2775 3584 3186 3129 
Q 3597 2675 3597 1894 
z
M 3022 2063 
Q 3016 2534 2758 2815 
Q 2500 3097 2075 3097 
Q 1594 3097 1305 2825 
Q 1016 2553 972 2059 
L 3022 2063 
z
" transform="scale(0.015625)"/>
       <path id="DejaVuSans-72" d="M 2631 2963 
Q 2534 3019 2420 3045 
Q 2306 3072 2169 3072 
Q 1681 3072 1420 2755 
Q 1159 2438 1159 1844 
L 1159 0 
L 581 0 
L 581 3500 
L 1159 3500 
L 1159 2956 
Q 1341 3275 1631 3429 
Q 1922 3584 2338 3584 
Q 2397 3584 2469 3576 
Q 2541 3569 2628 3553 
L 2631 2963 
z
" transform="scale(0.015625)"/>
      </defs>
      <use xlink:href="#DejaVuSans-63"/>
      <use xlink:href="#DejaVuSans-6c" x="54.980469"/>
      <use xlink:href="#DejaVuSans-75" x="82.763672"/>
      <use xlink:href="#DejaVuSans-73" x="146.142578"/>
      <use xlink:href="#DejaVuSans-74" x="198.242188"/>
      <use xlink:href="#DejaVuSans-65" x="237.451172"/>
      <use xlink:href="#DejaVuSans-72" x="298.974609"/>
     </g>
    </g>
   </g>
   <g id="matplotlib.axis_2">
    <g id="ytick_1">
     <g id="line2d_7">
      <defs>
       <path id="m32137cdba0" d="M 0 0 
L -3.5 0 
" style="stroke: #000000; stroke-width: 0.8"/>
      </defs>
      <g>
       <use xlink:href="#m32137cdba0" x="57.8" y="304.227273" style="stroke: #000000; stroke-width: 0.8"/>
      </g>
     </g>
     <g id="text_8">
      <!-- 0 -->
      <g transform="translate(44.4375 308.026491)scale(0.1 -0.1)">
       <use xlink:href="#DejaVuSans-30"/>
      </g>
     </g>
    </g>
    <g id="ytick_2">
     <g id="line2d_8">
      <g>
       <use xlink:href="#m32137cdba0" x="57.8" y="246.726337" style="stroke: #000000; stroke-width: 0.8"/>
      </g>
     </g>
     <g id="text_9">
      <!-- 200 -->
      <g transform="translate(31.7125 250.525556)scale(0.1 -0.1)">
       <use xlink:href="#DejaVuSans-32"/>
       <use xlink:href="#DejaVuSans-30" x="63.623047"/>
       <use xlink:href="#DejaVuSans-30" x="127.246094"/>
      </g>
     </g>
    </g>
    <g id="ytick_3">
     <g id="line2d_9">
      <g>
       <use xlink:href="#m32137cdba0" x="57.8" y="189.225402" style="stroke: #000000; stroke-width: 0.8"/>
      </g>
     </g>
     <g id="text_10">
      <!-- 400 -->
      <g transform="translate(31.7125 193.024621)scale(0.1 -0.1)">
       <use xlink:href="#DejaVuSans-34"/>
       <use xlink:href="#DejaVuSans-30" x="63.623047"/>
       <use xlink:href="#DejaVuSans-30" x="127.246094"/>
      </g>
     </g>
    </g>
    <g id="ytick_4">
     <g id="line2d_10">
      <g>
       <use xlink:href="#m32137cdba0" x="57.8" y="131.724467" style="stroke: #000000; stroke-width: 0.8"/>
      </g>
     </g>
     <g id="text_11">
      <!-- 600 -->
      <g transform="translate(31.7125 135.523686)scale(0.1 -0.1)">
       <defs>
        <path id="DejaVuSans-36" d="M 2113 2584 
Q 1688 2584 1439 2293 
Q 1191 2003 1191 1497 
Q 1191 994 1439 701 
Q 1688 409 2113 409 
Q 2538 409 2786 701 
Q 3034 994 3034 1497 
Q 3034 2003 2786 2293 
Q 2538 2584 2113 2584 
z
M 3366 4563 
L 3366 3988 
Q 3128 4100 2886 4159 
Q 2644 4219 2406 4219 
Q 1781 4219 1451 3797 
Q 1122 3375 1075 2522 
Q 1259 2794 1537 2939 
Q 1816 3084 2150 3084 
Q 2853 3084 3261 2657 
Q 3669 2231 3669 1497 
Q 3669 778 3244 343 
Q 2819 -91 2113 -91 
Q 1303 -91 875 529 
Q 447 1150 447 2328 
Q 447 3434 972 4092 
Q 1497 4750 2381 4750 
Q 2619 4750 2861 4703 
Q 3103 4656 3366 4563 
z
" transform="scale(0.015625)"/>
       </defs>
       <use xlink:href="#DejaVuSans-36"/>
       <use xlink:href="#DejaVuSans-30" x="63.623047"/>
       <use xlink:href="#DejaVuSans-30" x="127.246094"/>
      </g>
     </g>
    </g>
    <g id="ytick_5">
     <g id="line2d_11">
      <g>
       <use xlink:href="#m32137cdba0" x="57.8" y="74.223532" style="stroke: #000000; stroke-width: 0.8"/>
      </g>
     </g>
     <g id="text_12">
      <!-- 800 -->
      <g transform="translate(31.7125 78.02275)scale(0.1 -0.1)">
       <defs>
        <path id="DejaVuSans-38" d="M 2034 2216 
Q 1584 2216 1326 1975 
Q 1069 1734 1069 1313 
Q 1069 891 1326 650 
Q 1584 409 2034 409 
Q 2484 409 2743 651 
Q 3003 894 3003 1313 
Q 3003 1734 2745 1975 
Q 2488 2216 2034 2216 
z
M 1403 2484 
Q 997 2584 770 2862 
Q 544 3141 544 3541 
Q 544 4100 942 4425 
Q 1341 4750 2034 4750 
Q 2731 4750 3128 4425 
Q 3525 4100 3525 3541 
Q 3525 3141 3298 2862 
Q 3072 2584 2669 2484 
Q 3125 2378 3379 2068 
Q 3634 1759 3634 1313 
Q 3634 634 3220 271 
Q 2806 -91 2034 -91 
Q 1263 -91 848 271 
Q 434 634 434 1313 
Q 434 1759 690 2068 
Q 947 2378 1403 2484 
z
M 1172 3481 
Q 1172 3119 1398 2916 
Q 1625 2713 2034 2713 
Q 2441 2713 2670 2916 
Q 2900 3119 2900 3481 
Q 2900 3844 2670 4047 
Q 2441 4250 2034 4250 
Q 1625 4250 1398 4047 
Q 1172 3844 1172 3481 
z
" transform="scale(0.015625)"/>
       </defs>
       <use xlink:href="#DejaVuSans-38"/>
       <use xlink:href="#DejaVuSans-30" x="63.623047"/>
       <use xlink:href="#DejaVuSans-30" x="127.246094"/>
      </g>
     </g>
    </g>
    <g id="ytick_6">
     <g id="line2d_12">
      <g>
       <use xlink:href="#m32137cdba0" x="57.8" y="16.722596" style="stroke: #000000; stroke-width: 0.8"/>
      </g>
     </g>
     <g id="text_13">
      <!-- 1000 -->
      <g transform="translate(25.35 20.521815)scale(0.1 -0.1)">
       <use xlink:href="#DejaVuSans-31"/>
       <use xlink:href="#DejaVuSans-30" x="63.623047"/>
       <use xlink:href="#DejaVuSans-30" x="127.246094"/>
       <use xlink:href="#DejaVuSans-30" x="190.869141"/>
      </g>
     </g>
    </g>
    <g id="text_14">
     <!-- Importations - Quantité -->
     <g transform="translate(19.270312 223.046094)rotate(-90)scale(0.1 -0.1)">
      <defs>
       <path id="DejaVuSans-49" d="M 628 4666 
L 1259 4666 
L 1259 0 
L 628 0 
L 628 4666 
z
" transform="scale(0.015625)"/>
       <path id="DejaVuSans-6d" d="M 3328 2828 
Q 3544 3216 3844 3400 
Q 4144 3584 4550 3584 
Q 5097 3584 5394 3201 
Q 5691 2819 5691 2113 
L 5691 0 
L 5113 0 
L 5113 2094 
Q 5113 2597 4934 2840 
Q 4756 3084 4391 3084 
Q 3944 3084 3684 2787 
Q 3425 2491 3425 1978 
L 3425 0 
L 2847 0 
L 2847 2094 
Q 2847 2600 2669 2842 
Q 2491 3084 2119 3084 
Q 1678 3084 1418 2786 
Q 1159 2488 1159 1978 
L 1159 0 
L 581 0 
L 581 3500 
L 1159 3500 
L 1159 2956 
Q 1356 3278 1631 3431 
Q 1906 3584 2284 3584 
Q 2666 3584 2933 3390 
Q 3200 3197 3328 2828 
z
" transform="scale(0.015625)"/>
       <path id="DejaVuSans-70" d="M 1159 525 
L 1159 -1331 
L 581 -1331 
L 581 3500 
L 1159 3500 
L 1159 2969 
Q 1341 3281 1617 3432 
Q 1894 3584 2278 3584 
Q 2916 3584 3314 3078 
Q 3713 2572 3713 1747 
Q 3713 922 3314 415 
Q 2916 -91 2278 -91 
Q 1894 -91 1617 61 
Q 1341 213 1159 525 
z
M 3116 1747 
Q 3116 2381 2855 2742 
Q 2594 3103 2138 3103 
Q 1681 3103 1420 2742 
Q 1159 2381 1159 1747 
Q 1159 1113 1420 752 
Q 1681 391 2138 391 
Q 2594 391 2855 752 
Q 3116 1113 3116 1747 
z
" transform="scale(0.015625)"/>
       <path id="DejaVuSans-6f" d="M 1959 3097 
Q 1497 3097 1228 2736 
Q 959 2375 959 1747 
Q 959 1119 1226 758 
Q 1494 397 1959 397 
Q 2419 397 2687 759 
Q 2956 1122 2956 1747 
Q 2956 2369 2687 2733 
Q 2419 3097 1959 3097 
z
M 1959 3584 
Q 2709 3584 3137 3096 
Q 3566 2609 3566 1747 
Q 3566 888 3137 398 
Q 2709 -91 1959 -91 
Q 1206 -91 779 398 
Q 353 888 353 1747 
Q 353 2609 779 3096 
Q 1206 3584 1959 3584 
z
" transform="scale(0.015625)"/>
       <path id="DejaVuSans-61" d="M 2194 1759 
Q 1497 1759 1228 1600 
Q 959 1441 959 1056 
Q 959 750 1161 570 
Q 1363 391 1709 391 
Q 2188 391 2477 730 
Q 2766 1069 2766 1631 
L 2766 1759 
L 2194 1759 
z
M 3341 1997 
L 3341 0 
L 2766 0 
L 2766 531 
Q 2569 213 2275 61 
Q 1981 -91 1556 -91 
Q 1019 -91 701 211 
Q 384 513 384 1019 
Q 384 1609 779 1909 
Q 1175 2209 1959 2209 
L 2766 2209 
L 2766 2266 
Q 2766 2663 2505 2880 
Q 2244 3097 1772 3097 
Q 1472 3097 1187 3025 
Q 903 2953 641 2809 
L 641 3341 
Q 956 3463 1253 3523 
Q 1550 3584 1831 3584 
Q 2591 3584 2966 3190 
Q 3341 2797 3341 1997 
z
" transform="scale(0.015625)"/>
       <path id="DejaVuSans-69" d="M 603 3500 
L 1178 3500 
L 1178 0 
L 603 0 
L 603 3500 
z
M 603 4863 
L 1178 4863 
L 1178 4134 
L 603 4134 
L 603 4863 
z
" transform="scale(0.015625)"/>
       <path id="DejaVuSans-6e" d="M 3513 2113 
L 3513 0 
L 2938 0 
L 2938 2094 
Q 2938 2591 2744 2837 
Q 2550 3084 2163 3084 
Q 1697 3084 1428 2787 
Q 1159 2491 1159 1978 
L 1159 0 
L 581 0 
L 581 3500 
L 1159 3500 
L 1159 2956 
Q 1366 3272 1645 3428 
Q 1925 3584 2291 3584 
Q 2894 3584 3203 3211 
Q 3513 2838 3513 2113 
z
" transform="scale(0.015625)"/>
       <path id="DejaVuSans-20" transform="scale(0.015625)"/>
       <path id="DejaVuSans-2d" d="M 313 2009 
L 1997 2009 
L 1997 1497 
L 313 1497 
L 313 2009 
z
" transform="scale(0.015625)"/>
       <path id="DejaVuSans-51" d="M 2522 4238 
Q 1834 4238 1429 3725 
Q 1025 3213 1025 2328 
Q 1025 1447 1429 934 
Q 1834 422 2522 422 
Q 3209 422 3611 934 
Q 4013 1447 4013 2328 
Q 4013 3213 3611 3725 
Q 3209 4238 2522 4238 
z
M 3406 84 
L 4238 -825 
L 3475 -825 
L 2784 -78 
Q 2681 -84 2626 -87 
Q 2572 -91 2522 -91 
Q 1538 -91 948 567 
Q 359 1225 359 2328 
Q 359 3434 948 4092 
Q 1538 4750 2522 4750 
Q 3503 4750 4090 4092 
Q 4678 3434 4678 2328 
Q 4678 1516 4351 937 
Q 4025 359 3406 84 
z
" transform="scale(0.015625)"/>
       <path id="DejaVuSans-e9" d="M 3597 1894 
L 3597 1613 
L 953 1613 
Q 991 1019 1311 708 
Q 1631 397 2203 397 
Q 2534 397 2845 478 
Q 3156 559 3463 722 
L 3463 178 
Q 3153 47 2828 -22 
Q 2503 -91 2169 -91 
Q 1331 -91 842 396 
Q 353 884 353 1716 
Q 353 2575 817 3079 
Q 1281 3584 2069 3584 
Q 2775 3584 3186 3129 
Q 3597 2675 3597 1894 
z
M 3022 2063 
Q 3016 2534 2758 2815 
Q 2500 3097 2075 3097 
Q 1594 3097 1305 2825 
Q 1016 2553 972 2059 
L 3022 2063 
z
M 2469 5119 
L 3091 5119 
L 2072 3944 
L 1594 3944 
L 2469 5119 
z
" transform="scale(0.015625)"/>
      </defs>
      <use xlink:href="#DejaVuSans-49"/>
      <use xlink:href="#DejaVuSans-6d" x="29.492188"/>
      <use xlink:href="#DejaVuSans-70" x="126.904297"/>
      <use xlink:href="#DejaVuSans-6f" x="190.380859"/>
      <use xlink:href="#DejaVuSans-72" x="251.5625"/>
      <use xlink:href="#DejaVuSans-74" x="292.675781"/>
      <use xlink:href="#DejaVuSans-61" x="331.884766"/>
      <use xlink:href="#DejaVuSans-74" x="393.164062"/>
      <use xlink:href="#DejaVuSans-69" x="432.373047"/>
      <use xlink:href="#DejaVuSans-6f" x="460.15625"/>
      <use xlink:href="#DejaVuSans-6e" x="521.337891"/>
      <use xlink:href="#DejaVuSans-73" x="584.716797"/>
      <use xlink:href="#DejaVuSans-20" x="636.816406"/>
      <use xlink:href="#DejaVuSans-2d" x="668.603516"/>
      <use xlink:href="#DejaVuSans-20" x="704.6875"/>
      <use xlink:href="#DejaVuSans-51" x="736.474609"/>
      <use xlink:href="#DejaVuSans-75" x="815.185547"/>
      <use xlink:href="#DejaVuSans-61" x="878.564453"/>
      <use xlink:href="#DejaVuSans-6e" x="939.84375"/>
      <use xlink:href="#DejaVuSans-74" x="1003.222656"/>
      <use xlink:href="#DejaVuSans-69" x="1042.431641"/>
      <use xlink:href="#DejaVuSans-74" x="1070.214844"/>
      <use xlink:href="#DejaVuSans-e9" x="1109.423828"/>
     </g>
    </g>
   </g>
   <g id="line2d_13">
    <path d="M 57.8 304.227273 
L 349.2 304.227273 
" clip-path="url(#p2a3c69af31)" style="fill: none; stroke-dasharray: 1.85,0.8; stroke-dashoffset: 0; stroke: #000000; stroke-width: 0.5"/>
   </g>
   <g id="patch_3">
    <path d="M 57.8 318.2 
L 57.8 10.8 
" style="fill: none; stroke: #000000; stroke-width: 0.8; stroke-linejoin: miter; stroke-linecap: square"/>
   </g>
   <g id="patch_4">
    <path d="M 57.8 318.2 
L 349.2 318.2 
" style="fill: none; stroke: #000000; stroke-width: 0.8; stroke-linejoin: miter; stroke-linecap: square"/>
   </g>
   <g id="PathCollection_1">
    <defs>
     <path id="C0_0_d9987622fc" d="M 0 4 
C 1.060812 4 2.078319 3.578535 2.828427 2.828427 
C 3.578535 2.078319 4 1.060812 4 -0 
C 4 -1.060812 3.578535 -2.078319 2.828427 -2.828427 
C 2.078319 -3.578535 1.060812 -4 0 -4 
C -1.060812 -4 -2.078319 -3.578535 -2.828427 -2.828427 
C -3.578535 -2.078319 -4 -1.060812 -4 0 
C -4 1.060812 -3.578535 2.078319 -2.828427 2.828427 
C -2.078319 3.578535 -1.060812 4 0 4 
z
"/>
    </defs>
    <g clip-path="url(#p2a3c69af31)">
     <use xlink:href="#C0_0_d9987622fc" x="79.128814" y="295.889637" style="fill: #1f77b4"/>
    </g>
    <g clip-path="url(#p2a3c69af31)">
     <use xlink:href="#C0_0_d9987622fc" x="84.031886" y="293.302095" style="fill: #1f77b4"/>
    </g>
    <g clip-path="url(#p2a3c69af31)">
     <use xlink:href="#C0_0_d9987622fc" x="77.501762" y="303.652263" style="fill: #1f77b4"/>
    </g>
    <g clip-path="url(#p2a3c69af31)">
     <use xlink:href="#C0_0_d9987622fc" x="86.345438" y="224.588477" style="fill: #1f77b4"/>
    </g>
    <g clip-path="url(#p2a3c69af31)">
     <use xlink:href="#C0_0_d9987622fc" x="80.674572" y="302.21474" style="fill: #1f77b4"/>
    </g>
    <g clip-path="url(#p2a3c69af31)">
     <use xlink:href="#C0_0_d9987622fc" x="79.495666" y="294.164609" style="fill: #1f77b4"/>
    </g>
    <g clip-path="url(#p2a3c69af31)">
     <use xlink:href="#C0_0_d9987622fc" x="82.279964" y="272.601758" style="fill: #1f77b4"/>
    </g>
    <g clip-path="url(#p2a3c69af31)">
     <use xlink:href="#C0_0_d9987622fc" x="84.106753" y="296.464646" style="fill: #1f77b4"/>
    </g>
    <g clip-path="url(#p2a3c69af31)">
     <use xlink:href="#C0_0_d9987622fc" x="83.80529" y="297.32716" style="fill: #1f77b4"/>
    </g>
    <g clip-path="url(#p2a3c69af31)">
     <use xlink:href="#C0_0_d9987622fc" x="83.167881" y="304.227273" style="fill: #1f77b4"/>
    </g>
    <g clip-path="url(#p2a3c69af31)">
     <use xlink:href="#C0_0_d9987622fc" x="83.014133" y="303.652263" style="fill: #1f77b4"/>
    </g>
    <g clip-path="url(#p2a3c69af31)">
     <use xlink:href="#C0_0_d9987622fc" x="79.898833" y="207.050692" style="fill: #1f77b4"/>
    </g>
    <g clip-path="url(#p2a3c69af31)">
     <use xlink:href="#C0_0_d9987622fc" x="82.083501" y="304.227273" style="fill: #1f77b4"/>
    </g>
    <g clip-path="url(#p2a3c69af31)">
     <use xlink:href="#C0_0_d9987622fc" x="85.547" y="301.352226" style="fill: #1f77b4"/>
    </g>
    <g clip-path="url(#p2a3c69af31)">
     <use xlink:href="#C0_0_d9987622fc" x="83.044976" y="303.364759" style="fill: #1f77b4"/>
    </g>
    <g clip-path="url(#p2a3c69af31)">
     <use xlink:href="#C0_0_d9987622fc" x="80.302515" y="273.176768" style="fill: #1f77b4"/>
    </g>
    <g clip-path="url(#p2a3c69af31)">
     <use xlink:href="#C0_0_d9987622fc" x="83.482261" y="304.227273" style="fill: #1f77b4"/>
    </g>
    <g clip-path="url(#p2a3c69af31)">
     <use xlink:href="#C0_0_d9987622fc" x="86.057168" y="268.864198" style="fill: #1f77b4"/>
    </g>
    <g clip-path="url(#p2a3c69af31)">
     <use xlink:href="#C0_0_d9987622fc" x="86.920949" y="300.777217" style="fill: #1f77b4"/>
    </g>
    <g clip-path="url(#p2a3c69af31)">
     <use xlink:href="#C0_0_d9987622fc" x="77.742082" y="301.352226" style="fill: #1f77b4"/>
    </g>
    <g clip-path="url(#p2a3c69af31)">
     <use xlink:href="#C0_0_d9987622fc" x="84.954433" y="304.227273" style="fill: #1f77b4"/>
    </g>
    <g clip-path="url(#p2a3c69af31)">
     <use xlink:href="#C0_0_d9987622fc" x="81.563154" y="297.614665" style="fill: #1f77b4"/>
    </g>
    <g clip-path="url(#p2a3c69af31)">
     <use xlink:href="#C0_0_d9987622fc" x="79.556605" y="257.93902" style="fill: #1f77b4"/>
    </g>
    <g clip-path="url(#p2a3c69af31)">
     <use xlink:href="#C0_0_d9987622fc" x="81.401975" y="300.202207" style="fill: #1f77b4"/>
    </g>
    <g clip-path="url(#p2a3c69af31)">
     <use xlink:href="#C0_0_d9987622fc" x="84.752837" y="274.326786" style="fill: #1f77b4"/>
    </g>
    <g clip-path="url(#p2a3c69af31)">
     <use xlink:href="#C0_0_d9987622fc" x="85.115177" y="299.339693" style="fill: #1f77b4"/>
    </g>
    <g clip-path="url(#p2a3c69af31)">
     <use xlink:href="#C0_0_d9987622fc" x="80.037824" y="297.32716" style="fill: #1f77b4"/>
    </g>
    <g clip-path="url(#p2a3c69af31)">
     <use xlink:href="#C0_0_d9987622fc" x="85.693218" y="214.525814" style="fill: #1f77b4"/>
    </g>
    <g clip-path="url(#p2a3c69af31)">
     <use xlink:href="#C0_0_d9987622fc" x="84.864355" y="302.21474" style="fill: #1f77b4"/>
    </g>
    <g clip-path="url(#p2a3c69af31)">
     <use xlink:href="#C0_0_d9987622fc" x="85.513503" y="265.989151" style="fill: #1f77b4"/>
    </g>
    <g clip-path="url(#p2a3c69af31)">
     <use xlink:href="#C0_0_d9987622fc" x="85.606446" y="303.364759" style="fill: #1f77b4"/>
    </g>
    <g clip-path="url(#p2a3c69af31)">
     <use xlink:href="#C0_0_d9987622fc" x="81.552872" y="303.077254" style="fill: #1f77b4"/>
    </g>
    <g clip-path="url(#p2a3c69af31)">
     <use xlink:href="#C0_0_d9987622fc" x="77.546329" y="299.627198" style="fill: #1f77b4"/>
    </g>
    <g clip-path="url(#p2a3c69af31)">
     <use xlink:href="#C0_0_d9987622fc" x="79.235396" y="298.189675" style="fill: #1f77b4"/>
    </g>
    <g clip-path="url(#p2a3c69af31)">
     <use xlink:href="#C0_0_d9987622fc" x="79.377425" y="303.652263" style="fill: #1f77b4"/>
    </g>
    <g clip-path="url(#p2a3c69af31)">
     <use xlink:href="#C0_0_d9987622fc" x="86.514931" y="303.364759" style="fill: #1f77b4"/>
    </g>
    <g clip-path="url(#p2a3c69af31)">
     <use xlink:href="#C0_0_d9987622fc" x="82.55924" y="299.627198" style="fill: #1f77b4"/>
    </g>
    <g clip-path="url(#p2a3c69af31)">
     <use xlink:href="#C0_0_d9987622fc" x="85.888843" y="282.376917" style="fill: #1f77b4"/>
    </g>
    <g clip-path="url(#p2a3c69af31)">
     <use xlink:href="#C0_0_d9987622fc" x="85.128907" y="299.627198" style="fill: #1f77b4"/>
    </g>
    <g clip-path="url(#p2a3c69af31)">
     <use xlink:href="#C0_0_d9987622fc" x="82.713662" y="260.814067" style="fill: #1f77b4"/>
    </g>
    <g clip-path="url(#p2a3c69af31)">
     <use xlink:href="#C0_0_d9987622fc" x="80.65159" y="302.21474" style="fill: #1f77b4"/>
    </g>
    <g clip-path="url(#p2a3c69af31)">
     <use xlink:href="#C0_0_d9987622fc" x="83.565083" y="267.139169" style="fill: #1f77b4"/>
    </g>
    <g clip-path="url(#p2a3c69af31)">
     <use xlink:href="#C0_0_d9987622fc" x="84.11768" y="293.5896" style="fill: #1f77b4"/>
    </g>
    <g clip-path="url(#p2a3c69af31)">
     <use xlink:href="#C0_0_d9987622fc" x="83.765363" y="303.077254" style="fill: #1f77b4"/>
    </g>
    <g clip-path="url(#p2a3c69af31)">
     <use xlink:href="#C0_0_d9987622fc" x="85.79092" y="304.227273" style="fill: #1f77b4"/>
    </g>
    <g clip-path="url(#p2a3c69af31)">
     <use xlink:href="#C0_0_d9987622fc" x="80.916851" y="289.564534" style="fill: #1f77b4"/>
    </g>
    <g clip-path="url(#p2a3c69af31)">
     <use xlink:href="#C0_0_d9987622fc" x="79.583896" y="278.639357" style="fill: #1f77b4"/>
    </g>
    <g clip-path="url(#p2a3c69af31)">
     <use xlink:href="#C0_0_d9987622fc" x="77.831296" y="300.777217" style="fill: #1f77b4"/>
    </g>
    <g clip-path="url(#p2a3c69af31)">
     <use xlink:href="#C0_0_d9987622fc" x="78.212811" y="169.100075" style="fill: #1f77b4"/>
    </g>
    <g clip-path="url(#p2a3c69af31)">
     <use xlink:href="#C0_0_d9987622fc" x="77.25032" y="275.76431" style="fill: #1f77b4"/>
    </g>
    <g clip-path="url(#p2a3c69af31)">
     <use xlink:href="#C0_0_d9987622fc" x="81.857681" y="303.652263" style="fill: #1f77b4"/>
    </g>
    <g clip-path="url(#p2a3c69af31)">
     <use xlink:href="#C0_0_d9987622fc" x="80.792245" y="304.227273" style="fill: #1f77b4"/>
    </g>
    <g clip-path="url(#p2a3c69af31)">
     <use xlink:href="#C0_0_d9987622fc" x="78.824206" y="295.314628" style="fill: #1f77b4"/>
    </g>
    <g clip-path="url(#p2a3c69af31)">
     <use xlink:href="#C0_0_d9987622fc" x="84.670838" y="285.826973" style="fill: #1f77b4"/>
    </g>
    <g clip-path="url(#p2a3c69af31)">
     <use xlink:href="#C0_0_d9987622fc" x="77.740569" y="254.201459" style="fill: #1f77b4"/>
    </g>
    <g clip-path="url(#p2a3c69af31)">
     <use xlink:href="#C0_0_d9987622fc" x="77.619777" y="304.227273" style="fill: #1f77b4"/>
    </g>
    <g clip-path="url(#p2a3c69af31)">
     <use xlink:href="#C0_0_d9987622fc" x="82.422121" y="297.039656" style="fill: #1f77b4"/>
    </g>
    <g clip-path="url(#p2a3c69af31)">
     <use xlink:href="#C0_0_d9987622fc" x="81.115039" y="303.939768" style="fill: #1f77b4"/>
    </g>
    <g clip-path="url(#p2a3c69af31)">
     <use xlink:href="#C0_0_d9987622fc" x="82.005931" y="264.839132" style="fill: #1f77b4"/>
    </g>
    <g clip-path="url(#p2a3c69af31)">
     <use xlink:href="#C0_0_d9987622fc" x="85.642633" y="299.914703" style="fill: #1f77b4"/>
    </g>
    <g clip-path="url(#p2a3c69af31)">
     <use xlink:href="#C0_0_d9987622fc" x="84.988987" y="291.864572" style="fill: #1f77b4"/>
    </g>
    <g clip-path="url(#p2a3c69af31)">
     <use xlink:href="#C0_0_d9987622fc" x="85.862688" y="300.489712" style="fill: #1f77b4"/>
    </g>
    <g clip-path="url(#p2a3c69af31)">
     <use xlink:href="#C0_0_d9987622fc" x="86.662846" y="290.427048" style="fill: #1f77b4"/>
    </g>
    <g clip-path="url(#p2a3c69af31)">
     <use xlink:href="#C0_0_d9987622fc" x="84.721303" y="291.577067" style="fill: #1f77b4"/>
    </g>
    <g clip-path="url(#p2a3c69af31)">
     <use xlink:href="#C0_0_d9987622fc" x="77.814374" y="301.064721" style="fill: #1f77b4"/>
    </g>
    <g clip-path="url(#p2a3c69af31)">
     <use xlink:href="#C0_0_d9987622fc" x="79.454088" y="292.727086" style="fill: #1f77b4"/>
    </g>
    <g clip-path="url(#p2a3c69af31)">
     <use xlink:href="#C0_0_d9987622fc" x="83.294891" y="304.227273" style="fill: #1f77b4"/>
    </g>
    <g clip-path="url(#p2a3c69af31)">
     <use xlink:href="#C0_0_d9987622fc" x="80.467908" y="304.227273" style="fill: #1f77b4"/>
    </g>
    <g clip-path="url(#p2a3c69af31)">
     <use xlink:href="#C0_0_d9987622fc" x="85.490726" y="300.777217" style="fill: #1f77b4"/>
    </g>
    <g clip-path="url(#p2a3c69af31)">
     <use xlink:href="#C0_0_d9987622fc" x="86.618399" y="303.939768" style="fill: #1f77b4"/>
    </g>
    <g clip-path="url(#p2a3c69af31)">
     <use xlink:href="#C0_0_d9987622fc" x="85.237416" y="301.639731" style="fill: #1f77b4"/>
    </g>
    <g clip-path="url(#p2a3c69af31)">
     <use xlink:href="#C0_0_d9987622fc" x="85.53156" y="303.364759" style="fill: #1f77b4"/>
    </g>
    <g clip-path="url(#p2a3c69af31)">
     <use xlink:href="#C0_0_d9987622fc" x="81.687041" y="303.652263" style="fill: #1f77b4"/>
    </g>
    <g clip-path="url(#p2a3c69af31)">
     <use xlink:href="#C0_0_d9987622fc" x="86.092811" y="297.32716" style="fill: #1f77b4"/>
    </g>
    <g clip-path="url(#p2a3c69af31)">
     <use xlink:href="#C0_0_d9987622fc" x="79.873502" y="301.352226" style="fill: #1f77b4"/>
    </g>
    <g clip-path="url(#p2a3c69af31)">
     <use xlink:href="#C0_0_d9987622fc" x="83.918134" y="301.927235" style="fill: #1f77b4"/>
    </g>
    <g clip-path="url(#p2a3c69af31)">
     <use xlink:href="#C0_0_d9987622fc" x="80.371765" y="297.32716" style="fill: #1f77b4"/>
    </g>
    <g clip-path="url(#p2a3c69af31)">
     <use xlink:href="#C0_0_d9987622fc" x="86.918656" y="295.889637" style="fill: #1f77b4"/>
    </g>
    <g clip-path="url(#p2a3c69af31)">
     <use xlink:href="#C0_0_d9987622fc" x="85.119642" y="302.502245" style="fill: #1f77b4"/>
    </g>
    <g clip-path="url(#p2a3c69af31)">
     <use xlink:href="#C0_0_d9987622fc" x="86.881686" y="303.364759" style="fill: #1f77b4"/>
    </g>
    <g clip-path="url(#p2a3c69af31)">
     <use xlink:href="#C0_0_d9987622fc" x="80.972236" y="304.227273" style="fill: #1f77b4"/>
    </g>
    <g clip-path="url(#p2a3c69af31)">
     <use xlink:href="#C0_0_d9987622fc" x="78.809758" y="303.652263" style="fill: #1f77b4"/>
    </g>
    <g clip-path="url(#p2a3c69af31)">
     <use xlink:href="#C0_0_d9987622fc" x="79.344125" y="301.639731" style="fill: #1f77b4"/>
    </g>
    <g clip-path="url(#p2a3c69af31)">
     <use xlink:href="#C0_0_d9987622fc" x="77.893452" y="303.939768" style="fill: #1f77b4"/>
    </g>
    <g clip-path="url(#p2a3c69af31)">
     <use xlink:href="#C0_0_d9987622fc" x="85.251515" y="304.227273" style="fill: #1f77b4"/>
    </g>
    <g clip-path="url(#p2a3c69af31)">
     <use xlink:href="#C0_0_d9987622fc" x="82.258073" y="268.001684" style="fill: #1f77b4"/>
    </g>
    <g clip-path="url(#p2a3c69af31)">
     <use xlink:href="#C0_0_d9987622fc" x="77.793333" y="304.227273" style="fill: #1f77b4"/>
    </g>
    <g clip-path="url(#p2a3c69af31)">
     <use xlink:href="#C0_0_d9987622fc" x="81.781988" y="304.227273" style="fill: #1f77b4"/>
    </g>
    <g clip-path="url(#p2a3c69af31)">
     <use xlink:href="#C0_0_d9987622fc" x="79.084923" y="298.477179" style="fill: #1f77b4"/>
    </g>
    <g clip-path="url(#p2a3c69af31)">
     <use xlink:href="#C0_0_d9987622fc" x="82.435735" y="303.939768" style="fill: #1f77b4"/>
    </g>
    <g clip-path="url(#p2a3c69af31)">
     <use xlink:href="#C0_0_d9987622fc" x="83.468882" y="299.914703" style="fill: #1f77b4"/>
    </g>
    <g clip-path="url(#p2a3c69af31)">
     <use xlink:href="#C0_0_d9987622fc" x="82.447334" y="304.227273" style="fill: #1f77b4"/>
    </g>
    <g clip-path="url(#p2a3c69af31)">
     <use xlink:href="#C0_0_d9987622fc" x="81.947358" y="303.077254" style="fill: #1f77b4"/>
    </g>
    <g clip-path="url(#p2a3c69af31)">
     <use xlink:href="#C0_0_d9987622fc" x="82.317082" y="299.627198" style="fill: #1f77b4"/>
    </g>
    <g clip-path="url(#p2a3c69af31)">
     <use xlink:href="#C0_0_d9987622fc" x="78.095402" y="292.152076" style="fill: #1f77b4"/>
    </g>
    <g clip-path="url(#p2a3c69af31)">
     <use xlink:href="#C0_0_d9987622fc" x="82.541352" y="304.227273" style="fill: #1f77b4"/>
    </g>
    <g clip-path="url(#p2a3c69af31)">
     <use xlink:href="#C0_0_d9987622fc" x="78.657174" y="304.227273" style="fill: #1f77b4"/>
    </g>
    <g clip-path="url(#p2a3c69af31)">
     <use xlink:href="#C0_0_d9987622fc" x="86.13093" y="303.652263" style="fill: #1f77b4"/>
    </g>
    <g clip-path="url(#p2a3c69af31)">
     <use xlink:href="#C0_0_d9987622fc" x="79.452984" y="303.077254" style="fill: #1f77b4"/>
    </g>
    <g clip-path="url(#p2a3c69af31)">
     <use xlink:href="#C0_0_d9987622fc" x="83.303215" y="301.639731" style="fill: #1f77b4"/>
    </g>
    <g clip-path="url(#p2a3c69af31)">
     <use xlink:href="#C0_0_d9987622fc" x="82.184943" y="301.352226" style="fill: #1f77b4"/>
    </g>
    <g clip-path="url(#p2a3c69af31)">
     <use xlink:href="#C0_0_d9987622fc" x="83.09539" y="299.339693" style="fill: #1f77b4"/>
    </g>
    <g clip-path="url(#p2a3c69af31)">
     <use xlink:href="#C0_0_d9987622fc" x="84.559393" y="303.652263" style="fill: #1f77b4"/>
    </g>
    <g clip-path="url(#p2a3c69af31)">
     <use xlink:href="#C0_0_d9987622fc" x="83.831961" y="300.777217" style="fill: #1f77b4"/>
    </g>
    <g clip-path="url(#p2a3c69af31)">
     <use xlink:href="#C0_0_d9987622fc" x="79.658671" y="300.202207" style="fill: #1f77b4"/>
    </g>
    <g clip-path="url(#p2a3c69af31)">
     <use xlink:href="#C0_0_d9987622fc" x="85.746535" y="286.114478" style="fill: #1f77b4"/>
    </g>
    <g clip-path="url(#p2a3c69af31)">
     <use xlink:href="#C0_0_d9987622fc" x="79.522244" y="298.477179" style="fill: #1f77b4"/>
    </g>
    <g clip-path="url(#p2a3c69af31)">
     <use xlink:href="#C0_0_d9987622fc" x="79.077302" y="303.652263" style="fill: #1f77b4"/>
    </g>
    <g clip-path="url(#p2a3c69af31)">
     <use xlink:href="#C0_0_d9987622fc" x="84.424344" y="304.227273" style="fill: #1f77b4"/>
    </g>
    <g clip-path="url(#p2a3c69af31)">
     <use xlink:href="#C0_0_d9987622fc" x="84.655182" y="289.564534" style="fill: #1f77b4"/>
    </g>
    <g clip-path="url(#p2a3c69af31)">
     <use xlink:href="#C0_0_d9987622fc" x="85.513923" y="299.052189" style="fill: #1f77b4"/>
    </g>
    <g clip-path="url(#p2a3c69af31)">
     <use xlink:href="#C0_0_d9987622fc" x="80.197848" y="280.07688" style="fill: #1f77b4"/>
    </g>
    <g clip-path="url(#p2a3c69af31)">
     <use xlink:href="#C0_0_d9987622fc" x="80.565878" y="304.227273" style="fill: #1f77b4"/>
    </g>
    <g clip-path="url(#p2a3c69af31)">
     <use xlink:href="#C0_0_d9987622fc" x="81.372644" y="293.302095" style="fill: #1f77b4"/>
    </g>
    <g clip-path="url(#p2a3c69af31)">
     <use xlink:href="#C0_0_d9987622fc" x="80.6043" y="303.939768" style="fill: #1f77b4"/>
    </g>
    <g clip-path="url(#p2a3c69af31)">
     <use xlink:href="#C0_0_d9987622fc" x="85.851141" y="270.87673" style="fill: #1f77b4"/>
    </g>
    <g clip-path="url(#p2a3c69af31)">
     <use xlink:href="#C0_0_d9987622fc" x="79.707602" y="301.064721" style="fill: #1f77b4"/>
    </g>
    <g clip-path="url(#p2a3c69af31)">
     <use xlink:href="#C0_0_d9987622fc" x="86.687252" y="299.627198" style="fill: #1f77b4"/>
    </g>
    <g clip-path="url(#p2a3c69af31)">
     <use xlink:href="#C0_0_d9987622fc" x="81.58013" y="297.614665" style="fill: #1f77b4"/>
    </g>
    <g clip-path="url(#p2a3c69af31)">
     <use xlink:href="#C0_0_d9987622fc" x="81.802401" y="304.227273" style="fill: #1f77b4"/>
    </g>
    <g clip-path="url(#p2a3c69af31)">
     <use xlink:href="#C0_0_d9987622fc" x="82.588626" y="301.639731" style="fill: #1f77b4"/>
    </g>
    <g clip-path="url(#p2a3c69af31)">
     <use xlink:href="#C0_0_d9987622fc" x="77.907717" y="303.364759" style="fill: #1f77b4"/>
    </g>
    <g clip-path="url(#p2a3c69af31)">
     <use xlink:href="#C0_0_d9987622fc" x="80.030489" y="303.077254" style="fill: #1f77b4"/>
    </g>
    <g clip-path="url(#p2a3c69af31)">
     <use xlink:href="#C0_0_d9987622fc" x="78.944341" y="297.039656" style="fill: #1f77b4"/>
    </g>
    <g clip-path="url(#p2a3c69af31)">
     <use xlink:href="#C0_0_d9987622fc" x="85.690727" y="281.801908" style="fill: #1f77b4"/>
    </g>
    <g clip-path="url(#p2a3c69af31)">
     <use xlink:href="#C0_0_d9987622fc" x="86.607636" y="300.777217" style="fill: #1f77b4"/>
    </g>
    <g clip-path="url(#p2a3c69af31)">
     <use xlink:href="#C0_0_d9987622fc" x="85.466687" y="302.502245" style="fill: #1f77b4"/>
    </g>
    <g clip-path="url(#p2a3c69af31)">
     <use xlink:href="#C0_0_d9987622fc" x="84.202907" y="179.737748" style="fill: #1f77b4"/>
    </g>
    <g clip-path="url(#p2a3c69af31)">
     <use xlink:href="#C0_0_d9987622fc" x="84.067974" y="304.227273" style="fill: #1f77b4"/>
    </g>
    <g clip-path="url(#p2a3c69af31)">
     <use xlink:href="#C0_0_d9987622fc" x="85.401434" y="303.939768" style="fill: #1f77b4"/>
    </g>
    <g clip-path="url(#p2a3c69af31)">
     <use xlink:href="#C0_0_d9987622fc" x="80.962383" y="302.502245" style="fill: #1f77b4"/>
    </g>
   </g>
   <g id="PathCollection_2">
    <defs>
     <path id="C1_0_a1d603d703" d="M 0 4 
C 1.060812 4 2.078319 3.578535 2.828427 2.828427 
C 3.578535 2.078319 4 1.060812 4 -0 
C 4 -1.060812 3.578535 -2.078319 2.828427 -2.828427 
C 2.078319 -3.578535 1.060812 -4 0 -4 
C -1.060812 -4 -2.078319 -3.578535 -2.828427 -2.828427 
C -3.578535 -2.078319 -4 -1.060812 -4 0 
C -4 1.060812 -3.578535 2.078319 -2.828427 2.828427 
C -2.078319 3.578535 -1.060812 4 0 4 
z
"/>
    </defs>
    <g clip-path="url(#p2a3c69af31)">
     <use xlink:href="#C1_0_a1d603d703" x="128.602944" y="299.627198" style="fill: #ff7f0e"/>
    </g>
    <g clip-path="url(#p2a3c69af31)">
     <use xlink:href="#C1_0_a1d603d703" x="132.765704" y="303.939768" style="fill: #ff7f0e"/>
    </g>
    <g clip-path="url(#p2a3c69af31)">
     <use xlink:href="#C1_0_a1d603d703" x="126.946412" y="298.189675" style="fill: #ff7f0e"/>
    </g>
    <g clip-path="url(#p2a3c69af31)">
     <use xlink:href="#C1_0_a1d603d703" x="126.423559" y="259.664048" style="fill: #ff7f0e"/>
    </g>
    <g clip-path="url(#p2a3c69af31)">
     <use xlink:href="#C1_0_a1d603d703" x="127.682622" y="281.514403" style="fill: #ff7f0e"/>
    </g>
    <g clip-path="url(#p2a3c69af31)">
     <use xlink:href="#C1_0_a1d603d703" x="131.462211" y="287.552001" style="fill: #ff7f0e"/>
    </g>
    <g clip-path="url(#p2a3c69af31)">
     <use xlink:href="#C1_0_a1d603d703" x="127.83533" y="276.339319" style="fill: #ff7f0e"/>
    </g>
    <g clip-path="url(#p2a3c69af31)">
     <use xlink:href="#C1_0_a1d603d703" x="128.871623" y="284.676955" style="fill: #ff7f0e"/>
    </g>
    <g clip-path="url(#p2a3c69af31)">
     <use xlink:href="#C1_0_a1d603d703" x="125.856941" y="280.651889" style="fill: #ff7f0e"/>
    </g>
    <g clip-path="url(#p2a3c69af31)">
     <use xlink:href="#C1_0_a1d603d703" x="130.502829" y="262.25159" style="fill: #ff7f0e"/>
    </g>
    <g clip-path="url(#p2a3c69af31)">
     <use xlink:href="#C1_0_a1d603d703" x="134.809681" y="264.839132" style="fill: #ff7f0e"/>
    </g>
    <g clip-path="url(#p2a3c69af31)">
     <use xlink:href="#C1_0_a1d603d703" x="132.439558" y="303.364759" style="fill: #ff7f0e"/>
    </g>
    <g clip-path="url(#p2a3c69af31)">
     <use xlink:href="#C1_0_a1d603d703" x="129.299062" y="269.439207" style="fill: #ff7f0e"/>
    </g>
   </g>
   <g id="PathCollection_3">
    <defs>
     <path id="C2_0_60165ed987" d="M 0 4 
C 1.060812 4 2.078319 3.578535 2.828427 2.828427 
C 3.578535 2.078319 4 1.060812 4 -0 
C 4 -1.060812 3.578535 -2.078319 2.828427 -2.828427 
C 2.078319 -3.578535 1.060812 -4 0 -4 
C -1.060812 -4 -2.078319 -3.578535 -2.828427 -2.828427 
C -3.578535 -2.078319 -4 -1.060812 -4 0 
C -4 1.060812 -3.578535 2.078319 -2.828427 2.828427 
C -2.078319 3.578535 -1.060812 4 0 4 
z
"/>
    </defs>
    <g clip-path="url(#p2a3c69af31)">
     <use xlink:href="#C2_0_60165ed987" x="175.207096" y="156.449869" style="fill: #2ca02c"/>
    </g>
    <g clip-path="url(#p2a3c69af31)">
     <use xlink:href="#C2_0_60165ed987" x="174.699634" y="62.148335" style="fill: #2ca02c"/>
    </g>
    <g clip-path="url(#p2a3c69af31)">
     <use xlink:href="#C2_0_60165ed987" x="176.173191" y="43.460531" style="fill: #2ca02c"/>
    </g>
    <g clip-path="url(#p2a3c69af31)">
     <use xlink:href="#C2_0_60165ed987" x="180.54524" y="24.772727" style="fill: #2ca02c"/>
    </g>
    <g clip-path="url(#p2a3c69af31)">
     <use xlink:href="#C2_0_60165ed987" x="177.852897" y="80.26113" style="fill: #2ca02c"/>
    </g>
   </g>
   <g id="PathCollection_4">
    <defs>
     <path id="C3_0_15374fafe6" d="M 0 4 
C 1.060812 4 2.078319 3.578535 2.828427 2.828427 
C 3.578535 2.078319 4 1.060812 4 -0 
C 4 -1.060812 3.578535 -2.078319 2.828427 -2.828427 
C 2.078319 -3.578535 1.060812 -4 0 -4 
C -1.060812 -4 -2.078319 -3.578535 -2.828427 -2.828427 
C -3.578535 -2.078319 -4 -1.060812 -4 0 
C -4 1.060812 -3.578535 2.078319 -2.828427 2.828427 
C -2.078319 3.578535 -1.060812 4 0 4 
z
"/>
    </defs>
    <g clip-path="url(#p2a3c69af31)">
     <use xlink:href="#C3_0_15374fafe6" x="231.793374" y="96.648896" style="fill: #d62728"/>
    </g>
    <g clip-path="url(#p2a3c69af31)">
     <use xlink:href="#C3_0_15374fafe6" x="224.605702" y="302.502245" style="fill: #d62728"/>
    </g>
    <g clip-path="url(#p2a3c69af31)">
     <use xlink:href="#C3_0_15374fafe6" x="227.130288" y="129.424429" style="fill: #d62728"/>
    </g>
   </g>
   <g id="PathCollection_5">
    <defs>
     <path id="C4_0_064addadb0" d="M 0 4 
C 1.060812 4 2.078319 3.578535 2.828427 2.828427 
C 3.578535 2.078319 4 1.060812 4 -0 
C 4 -1.060812 3.578535 -2.078319 2.828427 -2.828427 
C 2.078319 -3.578535 1.060812 -4 0 -4 
C -1.060812 -4 -2.078319 -3.578535 -2.828427 -2.828427 
C -3.578535 -2.078319 -4 -1.060812 -4 0 
C -4 1.060812 -3.578535 2.078319 -2.828427 2.828427 
C -2.078319 3.578535 -1.060812 4 0 4 
z
"/>
    </defs>
    <g clip-path="url(#p2a3c69af31)">
     <use xlink:href="#C4_0_064addadb0" x="271.797992" y="158.749906" style="fill: #9467bd"/>
    </g>
    <g clip-path="url(#p2a3c69af31)">
     <use xlink:href="#C4_0_064addadb0" x="273.882942" y="288.414516" style="fill: #9467bd"/>
    </g>
   </g>
   <g id="PathCollection_6">
    <defs>
     <path id="C5_0_f4453bf656" d="M 0 4 
C 1.060812 4 2.078319 3.578535 2.828427 2.828427 
C 3.578535 2.078319 4 1.060812 4 -0 
C 4 -1.060812 3.578535 -2.078319 2.828427 -2.828427 
C 2.078319 -3.578535 1.060812 -4 0 -4 
C -1.060812 -4 -2.078319 -3.578535 -2.828427 -2.828427 
C -3.578535 -2.078319 -4 -1.060812 -4 0 
C -4 1.060812 -3.578535 2.078319 -2.828427 2.828427 
C -2.078319 3.578535 -1.060812 4 0 4 
z
"/>
    </defs>
    <g clip-path="url(#p2a3c69af31)">
     <use xlink:href="#C5_0_f4453bf656" x="326.081956" y="301.927235" style="fill: #8c564b"/>
    </g>
    <g clip-path="url(#p2a3c69af31)">
     <use xlink:href="#C5_0_f4453bf656" x="320.27818" y="251.901422" style="fill: #8c564b"/>
    </g>
    <g clip-path="url(#p2a3c69af31)">
     <use xlink:href="#C5_0_f4453bf656" x="329.424907" y="281.801908" style="fill: #8c564b"/>
    </g>
    <g clip-path="url(#p2a3c69af31)">
     <use xlink:href="#C5_0_f4453bf656" x="324.082257" y="245.288814" style="fill: #8c564b"/>
    </g>
    <g clip-path="url(#p2a3c69af31)">
     <use xlink:href="#C5_0_f4453bf656" x="327.954665" y="303.939768" style="fill: #8c564b"/>
    </g>
    <g clip-path="url(#p2a3c69af31)">
     <use xlink:href="#C5_0_f4453bf656" x="320.83499" y="303.364759" style="fill: #8c564b"/>
    </g>
    <g clip-path="url(#p2a3c69af31)">
     <use xlink:href="#C5_0_f4453bf656" x="329.197577" y="303.652263" style="fill: #8c564b"/>
    </g>
    <g clip-path="url(#p2a3c69af31)">
     <use xlink:href="#C5_0_f4453bf656" x="328.969145" y="232.638608" style="fill: #8c564b"/>
    </g>
    <g clip-path="url(#p2a3c69af31)">
     <use xlink:href="#C5_0_f4453bf656" x="326.411329" y="286.976992" style="fill: #8c564b"/>
    </g>
    <g clip-path="url(#p2a3c69af31)">
     <use xlink:href="#C5_0_f4453bf656" x="328.848844" y="303.652263" style="fill: #8c564b"/>
    </g>
    <g clip-path="url(#p2a3c69af31)">
     <use xlink:href="#C5_0_f4453bf656" x="324.606969" y="220.563412" style="fill: #8c564b"/>
    </g>
    <g clip-path="url(#p2a3c69af31)">
     <use xlink:href="#C5_0_f4453bf656" x="322.321656" y="272.601758" style="fill: #8c564b"/>
    </g>
   </g>
  </g>
 </g>
 <defs>
  <clipPath id="p2a3c69af31">
   <rect x="57.8" y="10.8" width="291.4" height="307.4"/>
  </clipPath>
 </defs>
</svg>
